<?xml version="1.0" encoding="utf-8"?>
<!-- Generator: Adobe Illustrator 19.1.0, SVG Export Plug-In . SVG Version: 6.00 Build 0)  -->
<svg version="1.1" id="Layer_1" xmlns="http://www.w3.org/2000/svg" xmlns:xlink="http://www.w3.org/1999/xlink" x="0px" y="0px"
	 viewBox="0 0 120 100" style="enable-background:new 0 0 120 100;" xml:space="preserve">
<style type="text/css">
	.st0{fill:none;stroke:#8F97A1;stroke-width:2;stroke-linecap:round;stroke-linejoin:round;stroke-miterlimit:10;}
	.st1{fill:#8F97A1;}
	
		.st2{fill-rule:evenodd;clip-rule:evenodd;fill:none;stroke:#8F97A1;stroke-width:2;stroke-linecap:round;stroke-linejoin:round;stroke-miterlimit:10;}
	.st3{fill-rule:evenodd;clip-rule:evenodd;fill:#8F97A1;}
	
		.st4{fill-rule:evenodd;clip-rule:evenodd;fill:none;stroke:#8F97A1;stroke-width:2.5;stroke-linecap:round;stroke-linejoin:round;stroke-miterlimit:10;}
	.st5{fill:#8F97A1;stroke:#8F97A1;stroke-width:0.25;stroke-linecap:round;stroke-linejoin:round;stroke-miterlimit:10;}
	.st6{fill:#8F97A1;stroke:#8F97A1;stroke-width:2;stroke-linecap:round;stroke-linejoin:round;stroke-miterlimit:10;}
	.st7{fill:none;stroke:#8F97A1;stroke-width:2;stroke-miterlimit:10;}
	
		.st8{fill-rule:evenodd;clip-rule:evenodd;fill:none;stroke:#8F97A1;stroke-width:1.5;stroke-linecap:round;stroke-linejoin:round;stroke-miterlimit:10;}
	.st9{fill:none;stroke:#8F97A1;stroke-width:2.5;stroke-linecap:round;stroke-linejoin:round;stroke-miterlimit:10;}
	.st10{fill:#8F97A1;stroke:#8F97A1;stroke-miterlimit:10;}
</style>
<g>
	<g>
		<path class="st0" d="M100,67.2c-2.1-6.4-5.6-12-11-12H74.4c-5.4,0-8.9,5.6-11,12"/>
		<circle class="st0" cx="81.7" cy="44.7" r="8.5"/>
		<circle class="st0" cx="39.7" cy="36.1" r="9.4"/>
		<path class="st0" d="M61.5,67.2c-1.9-9.2-6-19.5-13.7-19.5H31.7C24,47.8,19.9,58.1,18,67.2"/>
		<path class="st0" d="M52.1,67.2c0-0.5,0-1,0-1.6v-1.5l0.8,3"/>
		<path class="st0" d="M26.6,67.2l0.8-3v1.5c0,0.6,0,1,0,1.6"/>
	</g>
	<path class="st2" d="M115,73.3l-2.6-3.3c-1.1-1.3-2.7-2.1-4.4-2.1H10c-1.7,0-3.3,0.8-4.4,2.1L3,73.3"/>
</g>
</svg>
