<?xml version="1.0" encoding="utf-8"?>
<!-- Generator: Adobe Illustrator 19.1.0, SVG Export Plug-In . SVG Version: 6.00 Build 0)  -->
<svg version="1.1" id="Layer_1" xmlns="http://www.w3.org/2000/svg" xmlns:xlink="http://www.w3.org/1999/xlink" x="0px" y="0px"
	 viewBox="0 0 120 100" style="enable-background:new 0 0 120 100;" xml:space="preserve">
<style type="text/css">
	.st0{fill:#8F97A1;}
	.st1{fill-rule:evenodd;clip-rule:evenodd;fill:#8F97A1;}
</style>
<g>
	<path class="st0" d="M58.2,56.7c-0.8,0-1.6-0.2-2.3-0.7L13,37.2c-0.1,0-0.1-0.1-0.2-0.1c-0.9-0.6-1.4-1.7-1.2-2.8
		c0.2-1.1,0.9-2,2-2.3l41.1-15c2.3-0.7,4.6-0.7,6.8,0l41.2,15c1,0.3,1.8,1.2,2,2.3c0.2,1.1-0.3,2.2-1.2,2.8c-0.1,0-0.1,0.1-0.2,0.1
		L60.5,56C59.8,56.5,59,56.7,58.2,56.7z M13.9,35.4l42.9,18.8c0.1,0,0.1,0.1,0.2,0.1c0.8,0.5,1.8,0.5,2.6,0c0.1,0,0.1-0.1,0.2-0.1
		l42.9-18.8c0.4-0.3,0.3-0.7,0.3-0.8c0-0.1-0.1-0.6-0.6-0.7l-41.2-15c-1.8-0.5-3.7-0.5-5.5,0l-41.1,15c-0.5,0.2-0.6,0.6-0.7,0.7
		C13.6,34.7,13.5,35.1,13.9,35.4z"/>
	<path class="st0" d="M102.5,78.1c-0.5,0-0.9-0.3-1-0.8c-0.1-0.3-5.4-26.6-7.2-35.2c-0.3-1.4-1.7-2.2-3-2.5l-32-6.8
		c-0.5-0.1-0.9-0.6-0.8-1.2s0.6-0.9,1.2-0.8l32,6.8c2.3,0.5,4.1,2.1,4.5,4.1c1.8,8.6,7.1,34.9,7.2,35.2c0.1,0.5-0.2,1.1-0.8,1.2
		C102.7,78.1,102.6,78.1,102.5,78.1z"/>
	<path class="st0" d="M104.9,76.5l-4.5,0.6c-0.4,0.1-0.7,0.3-0.9,0.7L98.7,80c-0.2,0.6,0.1,1.2,0.7,1.4l3.5,1.1
		c0.3,0.1,0.6,0,0.9-0.1l3.1-2c0.5-0.3,0.7-1,0.3-1.5l-1.3-1.9C105.7,76.6,105.3,76.4,104.9,76.5z"/>
	<circle class="st0" cx="58.2" cy="31.9" r="3.3"/>
	<path class="st0" d="M58.2,79.2c-23.5,0-35.1-11.2-35.6-11.7c-0.2-0.2-0.3-0.6-0.3-0.9l4.6-23.3c0.1-0.5,0.6-0.9,1.2-0.8
		c0.5,0.1,0.9,0.6,0.8,1.2l-4.5,22.7c2.2,1.9,13.5,10.8,33.8,10.8S89.8,68.3,92,66.4l-4.5-22.7c-0.1-0.5,0.2-1.1,0.8-1.2
		c0.5-0.1,1.1,0.2,1.2,0.8L94,66.6c0.1,0.3,0,0.7-0.3,0.9C93.3,68,81.7,79.2,58.2,79.2z"/>
</g>
</svg>
