<?xml version="1.0" encoding="utf-8"?>
<!-- Generator: Adobe Illustrator 19.1.0, SVG Export Plug-In . SVG Version: 6.00 Build 0)  -->
<svg version="1.1" id="Layer_1" xmlns="http://www.w3.org/2000/svg" xmlns:xlink="http://www.w3.org/1999/xlink" x="0px" y="0px"
	 viewBox="0 0 120 100" style="enable-background:new 0 0 120 100;" xml:space="preserve">
<style type="text/css">
	.st0{fill:#8F97A1;}
	.st1{fill-rule:evenodd;clip-rule:evenodd;fill:#8F97A1;}
</style>
<g>
	<g>
		<path class="st0" d="M100.9,31.1c-0.1,0-0.2,0-0.4-0.1l-7.2-2.8c-0.5-0.2-0.8-0.8-0.6-1.3c0.2-0.5,0.8-0.8,1.3-0.6l7.2,2.8
			c0.5,0.2,0.8,0.8,0.6,1.3C101.7,30.9,101.3,31.1,100.9,31.1z"/>
		<path class="st0" d="M76.5,82.5c-0.1,0-0.2,0-0.4-0.1c-0.3-0.1-0.5-0.4-0.6-0.7l-1.7-6.4c-0.1-0.2,0-0.4,0-0.6l20.7-52.3l0,0
			c0.4-0.9,1.1-1.6,2-2c0.9-0.4,1.9-0.4,2.8,0l2.2,0.9c0.9,0.4,1.6,1.1,2,2s0.4,1.9,0,2.8L83,78.2c-0.1,0.2-0.2,0.4-0.4,0.5L77,82.3
			C76.9,82.4,76.7,82.5,76.5,82.5z M75.9,75.1l1.2,4.8l4.2-2.7l20.5-52c0.3-0.9-0.1-1.8-0.9-2.2l-2.2-0.9c-0.4-0.2-0.9-0.2-1.3,0
			c-0.4,0.2-0.7,0.5-0.9,0.9c0,0,0,0,0,0L75.9,75.1z"/>
		<path class="st0" d="M82.1,78.9c-0.1,0-0.2,0-0.4-0.1l-7.3-2.9c-0.5-0.2-0.8-0.8-0.6-1.3c0.2-0.5,0.8-0.8,1.3-0.6l7.3,2.9
			c0.5,0.2,0.8,0.8,0.6,1.3C82.9,78.6,82.5,78.9,82.1,78.9z"/>
	</g>
	<path class="st0" d="M74.3,91H22.4c-3.5,0-6.3-2.8-6.3-6.3V15.3c0-3.5,2.8-6.3,6.3-6.3h39.9c2.4,0,4.7,0.9,6.4,2.7l8.8,8.8
		c1.7,1.7,2.7,4,2.7,6.4v17.7c0,0.6-0.4,1-1,1s-1-0.4-1-1V26.9c0-1.9-0.7-3.7-2.1-5l-8.8-8.8c-1.3-1.3-3.1-2.1-5-2.1H22.4
		c-2.4,0-4.3,1.9-4.3,4.3v69.4c0,2.4,1.9,4.3,4.3,4.3h51.9c0.6,0,1,0.4,1,1S74.9,91,74.3,91z"/>
	<g>
		<path class="st0" d="M30.9,33.2c-1.8,0-3.3-1.5-3.3-3.3s1.5-3.3,3.3-3.3s3.3,1.5,3.3,3.3S32.7,33.2,30.9,33.2z M30.9,28.6
			c-0.7,0-1.3,0.6-1.3,1.3s0.6,1.3,1.3,1.3s1.3-0.6,1.3-1.3S31.6,28.6,30.9,28.6z"/>
		<g>
			<circle class="st0" cx="42.4" cy="29.9" r="2.3"/>
			<path class="st0" d="M42.4,33.2c-1.8,0-3.3-1.5-3.3-3.3s1.5-3.3,3.3-3.3s3.3,1.5,3.3,3.3S44.2,33.2,42.4,33.2z M42.4,28.6
				c-0.7,0-1.3,0.6-1.3,1.3s0.6,1.3,1.3,1.3c0.7,0,1.3-0.6,1.3-1.3S43.1,28.6,42.4,28.6z"/>
		</g>
		<path class="st0" d="M53.9,33.2c-1.8,0-3.3-1.5-3.3-3.3s1.5-3.3,3.3-3.3s3.3,1.5,3.3,3.3S55.8,33.2,53.9,33.2z M53.9,28.6
			c-0.7,0-1.3,0.6-1.3,1.3s0.6,1.3,1.3,1.3c0.7,0,1.3-0.6,1.3-1.3S54.7,28.6,53.9,28.6z"/>
		<path class="st0" d="M65.5,33.2c-1.8,0-3.3-1.5-3.3-3.3s1.5-3.3,3.3-3.3s3.3,1.5,3.3,3.3S67.3,33.2,65.5,33.2z M65.5,28.6
			c-0.7,0-1.3,0.6-1.3,1.3s0.6,1.3,1.3,1.3s1.3-0.6,1.3-1.3S66.2,28.6,65.5,28.6z"/>
	</g>
	<g>
		<g>
			<circle class="st0" cx="30.9" cy="50.6" r="2.3"/>
			<path class="st0" d="M30.9,54c-1.8,0-3.3-1.5-3.3-3.3c0-1.8,1.5-3.3,3.3-3.3s3.3,1.5,3.3,3.3C34.2,52.5,32.7,54,30.9,54z
				 M30.9,49.3c-0.7,0-1.3,0.6-1.3,1.3s0.6,1.3,1.3,1.3s1.3-0.6,1.3-1.3S31.6,49.3,30.9,49.3z"/>
		</g>
		<path class="st0" d="M42.4,54c-1.8,0-3.3-1.5-3.3-3.3c0-1.8,1.5-3.3,3.3-3.3s3.3,1.5,3.3,3.3C45.7,52.5,44.2,54,42.4,54z
			 M42.4,49.3c-0.7,0-1.3,0.6-1.3,1.3s0.6,1.3,1.3,1.3c0.7,0,1.3-0.6,1.3-1.3S43.1,49.3,42.4,49.3z"/>
		<path class="st0" d="M53.9,54c-1.8,0-3.3-1.5-3.3-3.3c0-1.8,1.5-3.3,3.3-3.3s3.3,1.5,3.3,3.3C57.3,52.5,55.8,54,53.9,54z
			 M53.9,49.3c-0.7,0-1.3,0.6-1.3,1.3s0.6,1.3,1.3,1.3c0.7,0,1.3-0.6,1.3-1.3S54.7,49.3,53.9,49.3z"/>
		<path class="st0" d="M65.5,54c-1.8,0-3.3-1.5-3.3-3.3c0-1.8,1.5-3.3,3.3-3.3s3.3,1.5,3.3,3.3C68.8,52.5,67.3,54,65.5,54z
			 M65.5,49.3c-0.7,0-1.3,0.6-1.3,1.3s0.6,1.3,1.3,1.3s1.3-0.6,1.3-1.3S66.2,49.3,65.5,49.3z"/>
	</g>
	<g>
		<path class="st0" d="M30.9,74.7c-1.8,0-3.3-1.5-3.3-3.3s1.5-3.3,3.3-3.3s3.3,1.5,3.3,3.3S32.7,74.7,30.9,74.7z M30.9,70.1
			c-0.7,0-1.3,0.6-1.3,1.3s0.6,1.3,1.3,1.3s1.3-0.6,1.3-1.3S31.6,70.1,30.9,70.1z"/>
		<path class="st0" d="M42.4,74.7c-1.8,0-3.3-1.5-3.3-3.3s1.5-3.3,3.3-3.3s3.3,1.5,3.3,3.3S44.2,74.7,42.4,74.7z M42.4,70.1
			c-0.7,0-1.3,0.6-1.3,1.3s0.6,1.3,1.3,1.3c0.7,0,1.3-0.6,1.3-1.3S43.1,70.1,42.4,70.1z"/>
		<path class="st0" d="M53.9,74.7c-1.8,0-3.3-1.5-3.3-3.3s1.5-3.3,3.3-3.3s3.3,1.5,3.3,3.3S55.8,74.7,53.9,74.7z M53.9,70.1
			c-0.7,0-1.3,0.6-1.3,1.3s0.6,1.3,1.3,1.3c0.7,0,1.3-0.6,1.3-1.3S54.7,70.1,53.9,70.1z"/>
		<g>
			<circle class="st0" cx="65.5" cy="71.4" r="2.3"/>
			<path class="st0" d="M65.5,74.7c-1.8,0-3.3-1.5-3.3-3.3s1.5-3.3,3.3-3.3s3.3,1.5,3.3,3.3S67.3,74.7,65.5,74.7z M65.5,70.1
				c-0.7,0-1.3,0.6-1.3,1.3s0.6,1.3,1.3,1.3s1.3-0.6,1.3-1.3S66.2,70.1,65.5,70.1z"/>
		</g>
	</g>
</g>
</svg>
