<?xml version="1.0" encoding="utf-8"?>
<!-- Generator: Adobe Illustrator 19.1.0, SVG Export Plug-In . SVG Version: 6.00 Build 0)  -->
<svg version="1.1" id="Layer_1" xmlns="http://www.w3.org/2000/svg" xmlns:xlink="http://www.w3.org/1999/xlink" x="0px" y="0px"
	 viewBox="0 0 120 100" style="enable-background:new 0 0 120 100;" xml:space="preserve">
<style type="text/css">
	.st0{fill:none;stroke:#ffffff;stroke-width:2;stroke-linecap:round;stroke-linejoin:round;stroke-miterlimit:10;}
	.st1{fill:#ffffff;}
	
		.st2{fill-rule:evenodd;clip-rule:evenodd;fill:none;stroke:#ffffff;stroke-width:2;stroke-linecap:round;stroke-linejoin:round;stroke-miterlimit:10;}
	.st3{fill-rule:evenodd;clip-rule:evenodd;fill:#ffffff;}
	
		.st4{fill-rule:evenodd;clip-rule:evenodd;fill:none;stroke:#ffffff;stroke-width:2.5;stroke-linecap:round;stroke-linejoin:round;stroke-miterlimit:10;}
	.st5{fill:#ffffff;stroke:#ffffff;stroke-width:0.25;stroke-linecap:round;stroke-linejoin:round;stroke-miterlimit:10;}
	.st6{fill:#ffffff;stroke:#ffffff;stroke-width:2;stroke-linecap:round;stroke-linejoin:round;stroke-miterlimit:10;}
	.st7{fill:none;stroke:#ffffff;stroke-width:2;stroke-miterlimit:10;}
	
		.st8{fill-rule:evenodd;clip-rule:evenodd;fill:none;stroke:#ffffff;stroke-width:1.5;stroke-linecap:round;stroke-linejoin:round;stroke-miterlimit:10;}
	.st9{fill:none;stroke:#ffffff;stroke-width:2.5;stroke-linecap:round;stroke-linejoin:round;stroke-miterlimit:10;}
	.st10{fill:#ffffff;stroke:#ffffff;stroke-miterlimit:10;}
</style>
<g>
	<path class="st0" d="M84,74.5c-2.7-8.4-7.3-17.4-14.4-17.4H50.4c-7.1,0-11.7,8.9-14.4,17.4"/>
	<circle class="st0" cx="60" cy="43.3" r="11.2"/>
	<path class="st2" d="M114.2,82.6l-3.5-5c-1.4-1.7-3.5-2.7-5.7-2.7H15c-2.2,0-4.3,1-5.7,2.7l-3.5,5"/>
	<g>
		<path class="st10" d="M20.5,23.2v8.3c0,0.2,0.2,0.4,0.4,0.4h6.6c0.2,0,0.4-0.2,0.4-0.4s-0.2-0.4-0.4-0.4h-6.2v-7.8
			c0-0.2-0.2-0.4-0.4-0.4C20.7,22.8,20.5,23,20.5,23.2z"/>
		<line class="st0" x1="20.9" y1="17.6" x2="20.9" y2="19.7"/>
		<line class="st0" x1="20.9" y1="43.5" x2="20.9" y2="45.6"/>
		<line class="st0" x1="6.9" y1="31.6" x2="9" y2="31.6"/>
		<line class="st0" x1="32.8" y1="31.6" x2="34.9" y2="31.6"/>
		<line class="st0" x1="11" y1="21.7" x2="12.5" y2="23.2"/>
		<line class="st0" x1="29.3" y1="40" x2="30.8" y2="41.5"/>
		<line class="st0" x1="11" y1="41.5" x2="12.5" y2="40"/>
		<line class="st0" x1="29.3" y1="23.2" x2="30.8" y2="21.7"/>
		<circle class="st0" cx="20.9" cy="31.6" r="14.2"/>
	</g>
</g>
</svg>
