<?xml version="1.0" encoding="utf-8"?>
<!-- Generator: Adobe Illustrator 19.1.0, SVG Export Plug-In . SVG Version: 6.00 Build 0)  -->
<svg version="1.1" id="Layer_1" xmlns="http://www.w3.org/2000/svg" xmlns:xlink="http://www.w3.org/1999/xlink" x="0px" y="0px"
	 viewBox="0 0 120 100" style="enable-background:new 0 0 120 100;" xml:space="preserve">
<style type="text/css">
	.st0{fill:#8F97A1;}
	.st1{fill-rule:evenodd;clip-rule:evenodd;fill:#8F97A1;}
</style>
<g>
	<path class="st0" d="M93.1,91H26.9c-1.8,0-5.1-1.4-5.1-3.6l0-1.1c0-3-0.1-7,1.7-9.4c1.6-2.2,3.6-3.9,5.9-5c5.6-2.8,17.7-6.1,20.8-7
		l0.1-4.9c-0.8-0.9-2.8-3.4-3.7-8.7c-0.3-0.1-0.6-0.2-0.9-0.4c-1.4-1-1.7-3.2-1.8-4.5c0-0.3-0.1-0.6-0.1-1c-0.3-2.7-0.4-5,0.7-6
		c0.1-0.1,0.1-0.1,0.2-0.2c-0.8-1.6-1.1-4.7-1.1-6.5c0.3-11.3,10.1-13.6,14.3-14c0.2,0,0.5,0,0.7-0.1l0.2,0c0.1,0,0.2,0,0.3,0
		c11.9-0.7,14.7,5.1,15.3,7.7c0.1,0.2,0.1,0.5,0.1,0.8c1,1.8,1.6,3.7,1.6,5.8v3.5c0,1-0.3,2-0.8,2.9c0.1,0,0.1,0.1,0.2,0.2
		c1.2,1,1,3.4,0.7,6.1c0,0.4-0.1,0.7-0.1,1c-0.1,1-0.3,3.5-1.8,4.5c-0.3,0.2-0.6,0.3-0.9,0.4c-0.9,5.3-2.8,7.9-3.7,8.7l0.1,4.8
		c3.1,0.9,15.2,4.2,20.8,7c2.3,1.2,4.3,2.9,5.9,5c1.8,2.4,1.7,6.4,1.7,9.4l0,1.1C98.2,89.6,94.9,91,93.1,91z M47.4,49.2
		c0.2,0,0.4,0.1,0.5,0.2c0.2,0.2,0.4,0.4,0.4,0.7c0.8,6.5,3.4,8.7,3.5,8.7c0.2,0.2,0.4,0.5,0.4,0.8l-0.1,6c0,0.5-0.3,0.8-0.7,1
		c-0.1,0-15,3.9-21.1,7c-2,1-3.8,2.5-5.2,4.4c-1.4,1.9-1.3,5.5-1.3,8.2l0,1.2c0,0.5,1.8,1.6,3.1,1.6h66.3c1.2,0,3.1-1,3.1-1.6l0-1.2
		c0-2.7,0-6.4-1.3-8.2l0,0c-1.4-1.9-3.2-3.4-5.2-4.4c-6.2-3.1-21-7.1-21.1-7.1c-0.4-0.1-0.7-0.5-0.7-1l-0.1-6c0-0.3,0.1-0.6,0.4-0.8
		c0,0,2.6-2.2,3.4-8.7c0-0.3,0.2-0.5,0.4-0.7c0.2-0.2,0.5-0.2,0.8-0.1c0.2,0.1,0.3,0,0.3,0c0.5-0.3,0.8-1.6,0.9-3
		c0-0.3,0.1-0.6,0.1-1c0.3-2.6,0.3-4-0.1-4.4c-0.3,0.1-0.6,0-0.9-0.2c-0.2-0.2-0.3-0.5-0.3-0.8l0.1-0.6c0-0.2,0.1-0.3,0.2-0.5
		c0.5-0.7,0.8-1.5,0.8-2.3v-3.5c0-1.8-0.5-3.5-1.4-5c-0.1-0.2-0.2-0.5-0.1-0.7c0-0.1,0-0.3,0-0.3c-0.5-2.1-2.8-6.8-13.2-6.2
		c-0.1,0-0.2,0-0.2,0l-0.2,0c-0.2,0-0.5,0-0.7,0.1c-5.8,0.6-9.6,3-11.4,7.1c-1.9,4.5-0.7,9.7-0.2,10.6c0.2,0.2,0.4,0.4,0.4,0.7
		l0.1,0.7c0,0.3-0.1,0.6-0.3,0.9c-0.2,0.2-0.6,0.3-0.9,0.2c-0.3,0.3-0.3,1.7-0.1,4.3c0,0.4,0.1,0.8,0.1,1.1c0.1,1.6,0.5,2.7,0.9,3
		c0.1,0,0.1,0.1,0.3,0C47.2,49.2,47.3,49.2,47.4,49.2z"/>
	<path class="st0" d="M95.1,91H24.9c-3.2,0-5.9-2.6-5.9-5.9V14.9c0-3.2,2.6-5.9,5.9-5.9h70.2c3.2,0,5.9,2.6,5.9,5.9v70.2
		C101,88.4,98.4,91,95.1,91z M24.9,11c-2.1,0-3.9,1.7-3.9,3.9v70.2c0,2.1,1.7,3.9,3.9,3.9h70.2c2.1,0,3.9-1.7,3.9-3.9V14.9
		c0-2.1-1.7-3.9-3.9-3.9H24.9z"/>
</g>
</svg>
