<?xml version="1.0" encoding="utf-8"?>
<!-- Generator: Adobe Illustrator 19.1.0, SVG Export Plug-In . SVG Version: 6.00 Build 0)  -->
<svg version="1.1" id="Layer_1" xmlns="http://www.w3.org/2000/svg" xmlns:xlink="http://www.w3.org/1999/xlink" x="0px" y="0px"
	 viewBox="0 0 120 100" style="enable-background:new 0 0 120 100;" xml:space="preserve">
<style type="text/css">
	.st0{fill:#00A4C4;}
	.st1{fill-rule:evenodd;clip-rule:evenodd;fill:#00A4C4;}
</style>
<g>
	<path class="st0" d="M100.1,72.5H19.9c-2.8,0-5.1-2.3-5.1-5.1V19.1c0-2.8,2.3-5.1,5.1-5.1h80.2c2.8,0,5.1,2.3,5.1,5.1v48.2
		C105.2,70.1,102.9,72.5,100.1,72.5z M19.9,16c-1.7,0-3.1,1.4-3.1,3.1v48.2c0,1.7,1.4,3.1,3.1,3.1h80.2c1.7,0,3.1-1.4,3.1-3.1V19.1
		c0-1.7-1.4-3.1-3.1-3.1H19.9z"/>
	<path class="st0" d="M99,67.1H21c-0.6,0-1-0.4-1-1V20.4c0-0.6,0.4-1,1-1h78c0.6,0,1,0.4,1,1v45.7C100,66.6,99.5,67.1,99,67.1z
		 M22,65.1h76V21.4H22V65.1z"/>
	<g>
		<path class="st0" d="M50.7,84.3c0,0-0.1,0-0.1,0c-0.5-0.1-0.9-0.6-0.9-1.1L51.1,72c0.1-0.5,0.6-0.9,1.1-0.9
			c0.5,0.1,0.9,0.6,0.9,1.1l-1.4,11.2C51.6,84,51.2,84.3,50.7,84.3z"/>
		<path class="st0" d="M69.3,84.3c-0.5,0-0.9-0.4-1-0.9l-1.4-11.2c-0.1-0.5,0.3-1,0.9-1.1c0.5-0.1,1,0.3,1.1,0.9l1.4,11.2
			c0.1,0.5-0.3,1-0.9,1.1C69.4,84.3,69.3,84.3,69.3,84.3z"/>
	</g>
	<path class="st0" d="M73.9,86H46.1c-0.6,0-1-0.4-1-1s0.4-1,1-1h27.7c0.6,0,1,0.4,1,1S74.4,86,73.9,86z"/>
</g>
</svg>
