<?xml version="1.0" encoding="utf-8"?>
<!-- Generator: Adobe Illustrator 19.1.0, SVG Export Plug-In . SVG Version: 6.00 Build 0)  -->
<svg version="1.1" id="Layer_1" xmlns="http://www.w3.org/2000/svg" xmlns:xlink="http://www.w3.org/1999/xlink" x="0px" y="0px"
	 viewBox="0 0 120 100" style="enable-background:new 0 0 120 100;" xml:space="preserve">
<style type="text/css">
	.st0{fill:#000000;}
	.st1{fill-rule:evenodd;clip-rule:evenodd;fill:#000000;}
</style>
<g>
	<path class="st0" d="M66.2,35.9H30.4c-0.6,0-1-0.4-1-1s0.4-1,1-1h35.8c0.6,0,1,0.4,1,1S66.7,35.9,66.2,35.9z"/>
	<path class="st0" d="M66.2,51H30.4c-0.6,0-1-0.4-1-1s0.4-1,1-1h35.8c0.6,0,1,0.4,1,1S66.7,51,66.2,51z"/>
	<path class="st0" d="M53.8,66.1H30.4c-0.6,0-1-0.4-1-1s0.4-1,1-1h23.5c0.6,0,1,0.4,1,1S54.4,66.1,53.8,66.1z"/>
	<g>
		<path class="st0" d="M98.2,34.9c-0.2,0-0.4,0-0.5-0.2l-6.2-3.9c-0.5-0.3-0.6-0.9-0.3-1.4s0.9-0.6,1.4-0.3l6.2,3.9
			c0.5,0.3,0.6,0.9,0.3,1.4C98.8,34.7,98.5,34.9,98.2,34.9z"/>
		<path class="st0" d="M66.5,78.2c-0.2,0-0.4-0.1-0.5-0.2c-0.3-0.2-0.4-0.5-0.5-0.8L65.1,71c0-0.2,0-0.4,0.2-0.6l28.4-44.8
			c0.5-0.8,1.3-1.3,2.2-1.6c0.9-0.2,1.9,0,2.7,0.5l1.9,1.2c0.8,0.5,1.4,1.3,1.6,2.2c0.2,0.9,0,1.9-0.5,2.7L73.2,75.4
			c-0.1,0.2-0.3,0.3-0.5,0.4l-5.8,2.3C66.7,78.1,66.6,78.2,66.5,78.2z M67.1,71.2l0.3,4.6l4.3-1.7l28.2-44.5
			c0.2-0.3,0.3-0.8,0.2-1.2c-0.1-0.4-0.3-0.7-0.7-1l-1.9-1.2c-0.3-0.2-0.8-0.3-1.2-0.2c-0.4,0.1-0.7,0.3-1,0.7c0,0,0,0,0,0
			L67.1,71.2z"/>
		<path class="st0" d="M72.3,75.8c-0.2,0-0.4,0-0.5-0.2l-6.2-3.9c-0.5-0.3-0.6-0.9-0.3-1.4c0.3-0.5,0.9-0.6,1.4-0.3l6.2,3.9
			c0.5,0.3,0.6,0.9,0.3,1.4C73,75.7,72.6,75.8,72.3,75.8z"/>
	</g>
	<path class="st0" d="M72.9,88.7H24c-3.3,0-6-2.7-6-6V17.3c0-3.3,2.7-6,6-6h37.6c2.3,0,4.5,0.9,6.1,2.5l8.3,8.3
		c1.6,1.6,2.5,3.8,2.5,6.1v11.4c0,0.6-0.4,1-1,1s-1-0.4-1-1V28.2c0-1.8-0.7-3.4-1.9-4.7l-8.3-8.3c-1.3-1.3-2.9-1.9-4.7-1.9H24
		c-2.2,0-4,1.8-4,4v65.5c0,2.2,1.8,4,4,4h49c0.6,0,1,0.4,1,1S73.5,88.7,72.9,88.7z"/>
</g>
</svg>
