<?xml version="1.0" encoding="utf-8"?>
<!-- Generator: Adobe Illustrator 19.1.0, SVG Export Plug-In . SVG Version: 6.00 Build 0)  -->
<svg version="1.1" id="Layer_1" xmlns="http://www.w3.org/2000/svg" xmlns:xlink="http://www.w3.org/1999/xlink" x="0px" y="0px"
	 viewBox="0 0 120 100" style="enable-background:new 0 0 120 100;" xml:space="preserve">
<style type="text/css">
	.st0{fill:#8F97A1;}
	.st1{fill-rule:evenodd;clip-rule:evenodd;fill:#8F97A1;}
</style>
<path class="st0" d="M81.7,83.7c-14.8,0-33.8-18.5-35.3-20.1c0,0,0,0,0,0c0,0,0,0,0,0c0,0,0,0,0,0c0,0,0,0,0,0l0,0
	c-1.6-1.6-25.4-26-19-41.1c0-0.1,0.1-0.2,0.2-0.3c0.6-0.8,6.5-7.6,11.2-5.6c1.8,0.8,9.7,8.2,11.2,17.4c0,0.1,0,0.3,0,0.5
	c0,0.2-0.8,3.8-4.3,9c0.5,1.2,2.5,4.9,9.2,11.6c6.7,6.7,10.4,8.7,11.7,9.2c5.1-3.5,8.8-4.3,9-4.3c0.1,0,0.3,0,0.5,0
	c9.3,1.5,16.7,9.5,17.5,11.2c2,4.7-4.8,10.6-5.6,11.2c-0.1,0.1-0.2,0.1-0.3,0.2C85.7,83.4,83.7,83.7,81.7,83.7z M48.1,61.9
	c0.9,0.9,24.6,24.1,38.2,18.5c1.7-1.5,5.8-5.7,4.8-8.2c-0.5-1.1-7-8.2-15.3-9.7c-0.8,0.2-4.1,1.2-8.3,4.2c-0.3,0.2-0.6,0.3-1,0.2
	c-0.4-0.1-4.4-1.1-13.4-10.1c-9-9-10-12.9-10.1-13.4c-0.1-0.3,0-0.7,0.2-1c3-4.3,4-7.5,4.2-8.3c-1.5-8.3-8.6-14.8-9.7-15.3
	c-2.5-1.1-6.7,3.1-8.2,4.8C24,37.3,47.2,60.9,48.1,61.9z"/>
</svg>
