<?xml version="1.0" encoding="utf-8"?>
<!-- Generator: Adobe Illustrator 19.1.0, SVG Export Plug-In . SVG Version: 6.00 Build 0)  -->
<svg version="1.1" id="Layer_1" xmlns="http://www.w3.org/2000/svg" xmlns:xlink="http://www.w3.org/1999/xlink" x="0px" y="0px"
	 viewBox="0 0 120 100" style="enable-background:new 0 0 120 100;" xml:space="preserve">
<style type="text/css">
	.st0{fill:#8F97A1;}
	.st1{fill-rule:evenodd;clip-rule:evenodd;fill:#8F97A1;}
</style>
<g>
	<path class="st0" d="M60,81c-17.1,0-31-13.9-31-31s13.9-31,31-31s31,13.9,31,31S77.1,81,60,81z M60,21c-16,0-29,13-29,29
		s13,29,29,29s29-13,29-29S76,21,60,21z"/>
	<path class="st0" d="M63.5,63.7c-0.3,0-0.5-0.1-0.7-0.3L50,50.7c-0.2-0.2-0.3-0.4-0.3-0.7s0.1-0.5,0.3-0.7l12.7-12.7
		c0.4-0.4,1-0.4,1.4,0s0.4,1,0,1.4l-12,12l12,12c0.4,0.4,0.4,1,0,1.4C64,63.6,63.7,63.7,63.5,63.7z"/>
</g>
</svg>
