<?xml version="1.0" encoding="utf-8"?>
<!-- Generator: Adobe Illustrator 19.1.0, SVG Export Plug-In . SVG Version: 6.00 Build 0)  -->
<svg version="1.1" id="Layer_1" xmlns="http://www.w3.org/2000/svg" xmlns:xlink="http://www.w3.org/1999/xlink" x="0px" y="0px"
	 viewBox="0 0 120 100" style="enable-background:new 0 0 120 100;" xml:space="preserve">
<style type="text/css">
	.st0{fill:#8F97A1;}
	.st1{fill-rule:evenodd;clip-rule:evenodd;fill:#8F97A1;}
</style>
<g>
	<g>
		<path class="st0" d="M25.3,28.4H10.1c-0.6,0-1-0.4-1-1v-9.9c0-0.6,0.4-1,1-1h15.2c0.6,0,1,0.4,1,1v9.9
			C26.3,28,25.8,28.4,25.3,28.4z M11.1,26.4h13.2v-7.9H11.1V26.4z"/>
		<path class="st0" d="M10.1,83.5c-0.6,0-1-0.4-1-1V27.4c0-0.6,0.4-1,1-1s1,0.4,1,1v55.1C11.1,83.1,10.6,83.5,10.1,83.5z"/>
	</g>
	<path class="st0" d="M109.9,36.8H49c-0.5,0-0.9-0.3-1-0.8c-0.1-0.4,0.1-0.9,0.5-1.1L79,18.3c0.3-0.2,0.7-0.2,1,0l30.5,16.7
		c0.4,0.2,0.6,0.7,0.5,1.1C110.8,36.5,110.4,36.8,109.9,36.8z M52.9,34.8H106L79.4,20.3L52.9,34.8z"/>
	<path class="st0" d="M109.5,83.5H49.4c-0.6,0-1-0.4-1-1V39.6c0-0.6,0.4-1,1-1h60.1c0.6,0,1,0.4,1,1v42.9
		C110.5,83.1,110.1,83.5,109.5,83.5z M50.4,81.5h58.1V40.6H50.4V81.5z"/>
	<path class="st0" d="M65.4,71.1h-8c-0.6,0-1-0.4-1-1v-8.6c0-0.6,0.4-1,1-1h8c0.6,0,1,0.4,1,1v8.6C66.4,70.6,66,71.1,65.4,71.1z
		 M58.4,69.1h6v-6.6h-6V69.1z"/>
	<path class="st0" d="M101.1,71.1h-8c-0.6,0-1-0.4-1-1v-8.6c0-0.6,0.4-1,1-1h8c0.6,0,1,0.4,1,1v8.6
		C102.1,70.6,101.7,71.1,101.1,71.1z M94.1,69.1h6v-6.6h-6V69.1z"/>
	<path class="st0" d="M65.4,56.6h-8c-0.6,0-1-0.4-1-1v-8.6c0-0.6,0.4-1,1-1h8c0.6,0,1,0.4,1,1v8.6C66.4,56.2,66,56.6,65.4,56.6z
		 M58.4,54.6h6v-6.6h-6V54.6z"/>
	<path class="st0" d="M83.5,52.4h-8c-0.6,0-1-0.4-1-1v-4.3c0-0.6,0.4-1,1-1h8c0.6,0,1,0.4,1,1v4.3C84.5,51.9,84,52.4,83.5,52.4z
		 M76.4,50.4h6v-2.3h-6V50.4z"/>
	<path class="st0" d="M101.1,56.6h-8c-0.6,0-1-0.4-1-1v-8.6c0-0.6,0.4-1,1-1h8c0.6,0,1,0.4,1,1v8.6
		C102.1,56.2,101.7,56.6,101.1,56.6z M94.1,54.6h6v-6.6h-6V54.6z"/>
	<path class="st0" d="M86.1,82.5c-0.6,0-1-0.4-1-1V65.2c0-2.9-2.6-5.3-5.7-5.3c-3.1,0-5.7,2.4-5.7,5.3v16.3c0,0.6-0.4,1-1,1
		s-1-0.4-1-1V65.2c0-4,3.5-7.3,7.7-7.3c4.2,0,7.7,3.3,7.7,7.3v16.3C87.1,82,86.7,82.5,86.1,82.5z"/>
	<path class="st0" d="M48.8,83.5H20.6c-0.6,0-1-0.4-1-1V50.8c0-0.6,0.4-1,1-1h28.3c0.6,0,1,0.4,1,1s-0.4,1-1,1H21.6v29.7h27.3
		c0.6,0,1,0.4,1,1S49.4,83.5,48.8,83.5z"/>
	<path class="st0" d="M39.4,70h-9.3c-0.6,0-1-0.4-1-1v-8.6c0-0.6,0.4-1,1-1h9.3c0.6,0,1,0.4,1,1V69C40.4,69.5,39.9,70,39.4,70z
		 M31.1,68h7.3v-6.6h-7.3V68z"/>
	<path class="st0" d="M39.4,74.3h-9.3c-0.6,0-1-0.4-1-1s0.4-1,1-1h9.3c0.6,0,1,0.4,1,1S39.9,74.3,39.4,74.3z"/>
</g>
</svg>
