<?xml version="1.0" encoding="utf-8"?>
<!-- Generator: Adobe Illustrator 19.1.0, SVG Export Plug-In . SVG Version: 6.00 Build 0)  -->
<svg version="1.1" id="Layer_1" xmlns="http://www.w3.org/2000/svg" xmlns:xlink="http://www.w3.org/1999/xlink" x="0px" y="0px"
	 viewBox="0 0 120 100" style="enable-background:new 0 0 120 100;" xml:space="preserve">
<style type="text/css">
	.st0{fill:#8F97A1;}
	.st1{fill-rule:evenodd;clip-rule:evenodd;fill:#8F97A1;}
</style>
<g>
	<path class="st0" d="M96.6,76H23.4c-2.7,0-4.9-2.2-4.9-4.9V28.9c0-2.7,2.2-4.9,4.9-4.9h73.1c2.7,0,4.9,2.2,4.9,4.9v42.3
		C101.4,73.8,99.2,76,96.6,76z M23.4,26c-1.6,0-2.9,1.3-2.9,2.9v42.3c0,1.6,1.3,2.9,2.9,2.9h73.1c1.6,0,2.9-1.3,2.9-2.9V28.9
		c0-1.6-1.3-2.9-2.9-2.9H23.4z"/>
	<g>
		<path class="st0" d="M98.8,75c-0.3,0-0.5-0.1-0.7-0.3L73.2,50.2c-0.4-0.4-0.4-1,0-1.4c0.4-0.4,1-0.4,1.4,0l24.9,24.5
			c0.4,0.4,0.4,1,0,1.4C99.3,74.9,99.1,75,98.8,75z"/>
		<path class="st0" d="M21.2,75c-0.3,0-0.5-0.1-0.7-0.3c-0.4-0.4-0.4-1,0-1.4l24.9-24.5c0.4-0.4,1-0.4,1.4,0c0.4,0.4,0.4,1,0,1.4
			L21.9,74.7C21.7,74.9,21.4,75,21.2,75z"/>
	</g>
	<path class="st0" d="M60,62.3c-0.2,0-0.5-0.1-0.7-0.2L19.8,27.4c-0.4-0.4-0.5-1-0.1-1.4c0.4-0.4,1-0.5,1.4-0.1L60,59.9l38.8-34.1
		c0.4-0.4,1-0.3,1.4,0.1c0.4,0.4,0.3,1-0.1,1.4L60.7,62C60.5,62.2,60.2,62.3,60,62.3z"/>
</g>
</svg>
