<?xml version="1.0" encoding="utf-8"?>
<!-- Generator: Adobe Illustrator 19.1.0, SVG Export Plug-In . SVG Version: 6.00 Build 0)  -->
<svg version="1.1" id="Layer_1" xmlns="http://www.w3.org/2000/svg" xmlns:xlink="http://www.w3.org/1999/xlink" x="0px" y="0px"
	 viewBox="0 0 120 100" style="enable-background:new 0 0 120 100;" xml:space="preserve">
<style type="text/css">
	.st0{fill:#8F97A1;}
	.st1{fill-rule:evenodd;clip-rule:evenodd;fill:#8F97A1;}
</style>
<g>
	<path class="st0" d="M24.9,28.8c-4.1,0-7.4-3.3-7.4-7.4s3.3-7.4,7.4-7.4c4.1,0,7.4,3.3,7.4,7.4S28.9,28.8,24.9,28.8z M24.9,16
		c-3,0-5.4,2.4-5.4,5.4s2.4,5.4,5.4,5.4c3,0,5.4-2.4,5.4-5.4S27.8,16,24.9,16z"/>
	<path class="st0" d="M29.9,86h-1.2c-1.7,0-3.1-1-3.8-2.4C24.2,85,22.7,86,21,86h-1.2c-2.4,0-4.3-1.9-4.3-4.3l-0.1-31.1
		c0-0.8,0-1.6,0-2.2l-0.9,3.5c0,0.1-0.1,0.2-0.1,0.3c-1.1,1.7-3.4,2.2-5.1,1.1l-0.2-0.1C8.7,53,8,52.5,8.3,48c0.1-1.6,0.5-5,1.6-8.6
		c2-7,5.3-10.7,9.5-10.7h11c4.2,0,7.4,3.7,9.5,10.7c1.1,3.6,1.4,6.9,1.6,8.6c0.3,4.5-0.3,5-0.7,5.2l-0.2,0.1c-1.7,1.1-4,0.6-5.1-1.1
		c-0.1-0.1-0.1-0.2-0.1-0.3l-0.9-3.5c0,0.7,0,1.4,0,2.2l-0.1,31.1C34.2,84.1,32.2,86,29.9,86z M24.3,58.5h1.1c0.6,0,1,0.4,1,1v22.2
		c0,1.3,1,2.3,2.3,2.3h1.2c1.3,0,2.3-1,2.3-2.3l0.1-31.1c0-6.4,0-7.1,0-8.7v-1c0-0.5,0.4-0.9,0.9-1c0.5-0.1,1,0.2,1.1,0.7l2.9,10.6
		c0.5,0.7,1.5,0.9,2.3,0.4l0,0c0.5-1.8-0.4-12.2-4.1-17.7c-1.4-2.1-3.1-3.2-4.9-3.2h-11c-1.8,0-3.5,1.1-4.9,3.2
		c-3.7,5.5-4.6,15.9-4.1,17.7l0,0c0.8,0.5,1.7,0.3,2.3-0.4l2.9-10.6c0.1-0.5,0.6-0.8,1.1-0.7c0.5,0.1,0.9,0.5,0.9,1v1
		c0,1.6,0,2.3,0,8.7l0.1,31.1c0,1.3,1,2.3,2.3,2.3H21c1.3,0,2.3-1,2.3-2.3V59.5C23.3,58.9,23.8,58.5,24.3,58.5z"/>
	<path class="st0" d="M95.1,28.8c-0.2,0-0.3,0-0.5,0c-3.7-0.2-6.7-3.2-6.9-6.9c-0.1-2.1,0.7-4.2,2.2-5.7c1.5-1.5,3.6-2.3,5.7-2.2
		c3.7,0.2,6.7,3.2,6.9,6.9c0.1,2.1-0.7,4.2-2.2,5.7C99,28,97.1,28.8,95.1,28.8z M95.1,16c-1.4,0-2.8,0.6-3.8,1.6
		c-1.1,1.1-1.7,2.6-1.6,4.2c0.2,2.7,2.3,4.9,5,5c0,0,0,0,0,0c1.6,0.1,3.1-0.5,4.2-1.6c1.1-1.1,1.7-2.6,1.6-4.2c-0.2-2.7-2.3-4.9-5-5
		C95.4,16,95.3,16,95.1,16z"/>
	<path class="st0" d="M100.1,86H99c-1.7,0-3.1-1-3.8-2.4C94.4,85,93,86,91.3,86h-1.2c-2.4,0-4.3-1.9-4.3-4.3l0-13.1h-4.3
		c-0.3,0-0.6-0.1-0.8-0.4c-0.2-0.2-0.3-0.5-0.2-0.8c0.8-3.8,1.9-9.1,2.8-13.9c-1.2,0.7-2.6,0.7-3.8-0.1l-0.2-0.1
		C79,53,78.3,52.5,78.6,48c0.1-1.6,0.5-5,1.6-8.6c2-7,5.3-10.7,9.5-10.7h11c4.2,0,7.4,3.7,9.5,10.7c1.1,3.6,1.4,6.9,1.6,8.6
		c0.3,4.5-0.3,5-0.7,5.2l-0.2,0.1c-0.8,0.5-1.8,0.7-2.8,0.5c-0.4-0.1-0.7-0.2-1-0.4c1,4.8,2.1,10.1,2.8,13.9c0.1,0.3,0,0.6-0.2,0.8
		c-0.2,0.2-0.5,0.4-0.8,0.4h-4.3l0,13.1C104.4,84.1,102.5,86,100.1,86z M94.6,66.6h1.1c0.6,0,1,0.4,1,1v14.1c0,1.3,1,2.3,2.3,2.3
		h1.2c1.3,0,2.3-1,2.3-2.3l0-14.1c0-0.6,0.4-1,1-1h4c-5-24.5-5-24.6-5-24.7v-1c0-0.5,0.4-0.9,0.9-1c0.5-0.1,1,0.2,1.1,0.7l2.9,10.6
		c0.2,0.3,0.6,0.5,1,0.6c0.4,0.1,0.9,0,1.3-0.2l0,0c0.5-1.8-0.4-12.2-4.1-17.7c-1.4-2.1-3.1-3.2-4.9-3.2h-11c-1.8,0-3.5,1.1-4.9,3.2
		c-3.7,5.5-4.6,15.9-4.1,17.7l0,0c0.8,0.5,1.7,0.3,2.3-0.4l2.9-10.6c0.1-0.5,0.6-0.8,1.1-0.7c0.5,0.1,0.9,0.5,0.9,1v1
		c0,0.1,0,0.2-5,24.7h4c0.6,0,1,0.4,1,1l0,14.1c0,1.3,1,2.3,2.3,2.3h1.2c1.3,0,2.3-1,2.3-2.3V67.6C93.6,67,94,66.6,94.6,66.6z"/>
	<path class="st0" d="M60,34c-0.1,0-0.3,0-0.4,0l0,0c-3.4-0.2-6.1-3-6.4-6.4c-0.1-2,0.6-3.9,2-5.3c1.4-1.4,3.3-2.1,5.3-2
		c3.4,0.2,6.1,3,6.4,6.4c0.1,2-0.6,3.9-2,5.3C63.5,33.3,61.8,34,60,34z M59.7,32c1.4,0.1,2.7-0.4,3.7-1.4c1-1,1.5-2.3,1.4-3.7
		c-0.2-2.4-2.1-4.3-4.5-4.5c-1.4-0.1-2.7,0.4-3.7,1.4s-1.5,2.3-1.4,3.7C55.3,30,57.3,31.9,59.7,32L59.7,32z"/>
	<path class="st0" d="M64.5,86h-1.1c-1.5,0-2.8-0.8-3.5-2c-0.7,1.2-2,2-3.5,2h-1.1c-2.2,0-4-1.8-4-4l0-11.8h-3.8
		c-0.3,0-0.6-0.1-0.8-0.4c-0.2-0.2-0.3-0.5-0.2-0.8c0.7-3.4,1.7-8.1,2.5-12.5c-0.2,0.1-0.5,0.2-0.8,0.3c-0.9,0.2-1.8,0-2.6-0.5
		l-0.2-0.1c-0.4-0.2-1-0.7-0.7-4.8c0.1-1.5,0.5-4.5,1.4-7.8c1.9-6.4,4.9-9.8,8.7-9.8H65c3.8,0,6.8,3.4,8.7,9.8
		c1,3.3,1.3,6.3,1.4,7.8c0.3,4.2-0.3,4.6-0.7,4.8l-0.2,0.1c-1.1,0.7-2.3,0.7-3.4,0.2c0.9,4.3,1.8,9.1,2.5,12.5
		c0.1,0.3,0,0.6-0.2,0.8c-0.2,0.2-0.5,0.4-0.8,0.4h-3.8l0,11.8C68.5,84.2,66.7,86,64.5,86z M59.5,68.2h1c0.6,0,1,0.4,1,1V82
		c0,1.1,0.9,2,2,2h1.1c1.1,0,2-0.9,2-2l0-12.8c0-0.6,0.4-1,1-1h3.6c-4.5-22.1-4.5-22.2-4.5-22.3V45c0-0.5,0.4-0.9,0.9-1
		c0.5-0.1,1,0.2,1.1,0.7l2.6,9.6c0.5,0.6,1.3,0.7,1.9,0.3c0.4-1.8-0.4-11.2-3.8-16.1c-1.3-1.9-2.7-2.8-4.3-2.8H55
		c-1.6,0-3.1,0.9-4.3,2.8c-3.3,4.9-4.2,14.3-3.8,16.1c0.6,0.4,1.5,0.2,1.9-0.3l2.6-9.6c0.1-0.5,0.6-0.8,1.1-0.7
		c0.5,0.1,0.9,0.5,0.9,1v0.9c0,0.1,0,0.2-4.5,22.3h3.6c0.6,0,1,0.4,1,1l0,12.8c0,1.1,0.9,2,2,2h1.1c1.1,0,2-0.9,2-2V69.2
		C58.5,68.6,59,68.2,59.5,68.2z"/>
</g>
</svg>
