<?xml version="1.0" encoding="utf-8"?>
<!-- Generator: Adobe Illustrator 19.1.0, SVG Export Plug-In . SVG Version: 6.00 Build 0)  -->
<svg version="1.1" id="Layer_1" xmlns="http://www.w3.org/2000/svg" xmlns:xlink="http://www.w3.org/1999/xlink" x="0px" y="0px"
	 viewBox="0 0 120 100" style="enable-background:new 0 0 120 100;" xml:space="preserve">
<style type="text/css">
	.st0{fill:#F47B29;}
	.st1{fill-rule:evenodd;clip-rule:evenodd;fill:#F47B29;}
</style>
<g>
	<g>
		<path class="st0" d="M80.9,91H26.7c-3.4,0-6.1-2.7-6.1-6.1V15.1c0-3.4,2.7-6.1,6.1-6.1h54.2c3.4,0,6.1,2.7,6.1,6.1v69.8
			C87,88.3,84.3,91,80.9,91z M26.7,11c-2.2,0-4.1,1.8-4.1,4.1v69.8c0,2.2,1.8,4.1,4.1,4.1h54.2c2.2,0,4.1-1.8,4.1-4.1V15.1
			c0-2.2-1.8-4.1-4.1-4.1H26.7z"/>
		<g>
			<g>
				<path class="st0" d="M33.9,28.3c-1.6,0-2.9-1.3-2.9-2.9s1.3-2.9,2.9-2.9s2.9,1.3,2.9,2.9S35.5,28.3,33.9,28.3z M33.9,24.5
					c-0.5,0-0.9,0.4-0.9,0.9s0.4,0.9,0.9,0.9s0.9-0.4,0.9-0.9S34.4,24.5,33.9,24.5z"/>
				<path class="st0" d="M47.2,28.3c-1.6,0-2.9-1.3-2.9-2.9s1.3-2.9,2.9-2.9c1.6,0,2.9,1.3,2.9,2.9S48.8,28.3,47.2,28.3z M47.2,24.5
					c-0.5,0-0.9,0.4-0.9,0.9s0.4,0.9,0.9,0.9c0.5,0,0.9-0.4,0.9-0.9S47.7,24.5,47.2,24.5z"/>
				<path class="st0" d="M60.4,28.3c-1.6,0-2.9-1.3-2.9-2.9s1.3-2.9,2.9-2.9s2.9,1.3,2.9,2.9S62,28.3,60.4,28.3z M60.4,24.5
					c-0.5,0-0.9,0.4-0.9,0.9s0.4,0.9,0.9,0.9s0.9-0.4,0.9-0.9S60.9,24.5,60.4,24.5z"/>
				<path class="st0" d="M73.7,28.3c-1.6,0-2.9-1.3-2.9-2.9s1.3-2.9,2.9-2.9c1.6,0,2.9,1.3,2.9,2.9S75.3,28.3,73.7,28.3z M73.7,24.5
					c-0.5,0-0.9,0.4-0.9,0.9s0.4,0.9,0.9,0.9c0.5,0,0.9-0.4,0.9-0.9S74.2,24.5,73.7,24.5z"/>
			</g>
			<g>
				<path class="st0" d="M33.9,45.2c-1.6,0-2.9-1.3-2.9-2.9s1.3-2.9,2.9-2.9s2.9,1.3,2.9,2.9S35.5,45.2,33.9,45.2z M33.9,41.4
					c-0.5,0-0.9,0.4-0.9,0.9s0.4,0.9,0.9,0.9s0.9-0.4,0.9-0.9S34.4,41.4,33.9,41.4z"/>
				<path class="st0" d="M47.2,45.2c-1.6,0-2.9-1.3-2.9-2.9s1.3-2.9,2.9-2.9c1.6,0,2.9,1.3,2.9,2.9S48.8,45.2,47.2,45.2z M47.2,41.4
					c-0.5,0-0.9,0.4-0.9,0.9s0.4,0.9,0.9,0.9c0.5,0,0.9-0.4,0.9-0.9S47.7,41.4,47.2,41.4z"/>
				<path class="st0" d="M60.4,45.2c-1.6,0-2.9-1.3-2.9-2.9s1.3-2.9,2.9-2.9s2.9,1.3,2.9,2.9S62,45.2,60.4,45.2z M60.4,41.4
					c-0.5,0-0.9,0.4-0.9,0.9s0.4,0.9,0.9,0.9s0.9-0.4,0.9-0.9S60.9,41.4,60.4,41.4z"/>
				<path class="st0" d="M73.7,45.2c-1.6,0-2.9-1.3-2.9-2.9s1.3-2.9,2.9-2.9c1.6,0,2.9,1.3,2.9,2.9S75.3,45.2,73.7,45.2z M73.7,41.4
					c-0.5,0-0.9,0.4-0.9,0.9s0.4,0.9,0.9,0.9c0.5,0,0.9-0.4,0.9-0.9S74.2,41.4,73.7,41.4z"/>
			</g>
			<g>
				<path class="st0" d="M33.9,62c-1.6,0-2.9-1.3-2.9-2.9c0-1.6,1.3-2.9,2.9-2.9s2.9,1.3,2.9,2.9C36.8,60.7,35.5,62,33.9,62z
					 M33.9,58.3c-0.5,0-0.9,0.4-0.9,0.9c0,0.5,0.4,0.9,0.9,0.9s0.9-0.4,0.9-0.9C34.8,58.7,34.4,58.3,33.9,58.3z"/>
				<path class="st0" d="M47.2,62c-1.6,0-2.9-1.3-2.9-2.9c0-1.6,1.3-2.9,2.9-2.9c1.6,0,2.9,1.3,2.9,2.9C50,60.7,48.8,62,47.2,62z
					 M47.2,58.3c-0.5,0-0.9,0.4-0.9,0.9c0,0.5,0.4,0.9,0.9,0.9c0.5,0,0.9-0.4,0.9-0.9C48,58.7,47.7,58.3,47.2,58.3z"/>
				<path class="st0" d="M60.4,62c-1.6,0-2.9-1.3-2.9-2.9c0-1.6,1.3-2.9,2.9-2.9s2.9,1.3,2.9,2.9C63.3,60.7,62,62,60.4,62z
					 M60.4,58.3c-0.5,0-0.9,0.4-0.9,0.9c0,0.5,0.4,0.9,0.9,0.9s0.9-0.4,0.9-0.9C61.3,58.7,60.9,58.3,60.4,58.3z"/>
				<path class="st0" d="M73.7,62c-1.6,0-2.9-1.3-2.9-2.9c0-1.6,1.3-2.9,2.9-2.9c1.6,0,2.9,1.3,2.9,2.9C76.6,60.7,75.3,62,73.7,62z
					 M73.7,58.3c-0.5,0-0.9,0.4-0.9,0.9c0,0.5,0.4,0.9,0.9,0.9c0.5,0,0.9-0.4,0.9-0.9C74.6,58.7,74.2,58.3,73.7,58.3z"/>
			</g>
			<g>
				<path class="st0" d="M33.9,78.9c-1.6,0-2.9-1.3-2.9-2.9c0-1.6,1.3-2.9,2.9-2.9s2.9,1.3,2.9,2.9C36.8,77.6,35.5,78.9,33.9,78.9z
					 M33.9,75.2c-0.5,0-0.9,0.4-0.9,0.9c0,0.5,0.4,0.9,0.9,0.9s0.9-0.4,0.9-0.9C34.8,75.6,34.4,75.2,33.9,75.2z"/>
				<path class="st0" d="M47.2,78.9c-1.6,0-2.9-1.3-2.9-2.9c0-1.6,1.3-2.9,2.9-2.9c1.6,0,2.9,1.3,2.9,2.9
					C50,77.6,48.8,78.9,47.2,78.9z M47.2,75.2c-0.5,0-0.9,0.4-0.9,0.9c0,0.5,0.4,0.9,0.9,0.9c0.5,0,0.9-0.4,0.9-0.9
					C48,75.6,47.7,75.2,47.2,75.2z"/>
				<path class="st0" d="M60.4,78.9c-1.6,0-2.9-1.3-2.9-2.9c0-1.6,1.3-2.9,2.9-2.9s2.9,1.3,2.9,2.9C63.3,77.6,62,78.9,60.4,78.9z
					 M60.4,75.2c-0.5,0-0.9,0.4-0.9,0.9c0,0.5,0.4,0.9,0.9,0.9s0.9-0.4,0.9-0.9C61.3,75.6,60.9,75.2,60.4,75.2z"/>
				<path class="st0" d="M73.7,78.9c-1.6,0-2.9-1.3-2.9-2.9c0-1.6,1.3-2.9,2.9-2.9c1.6,0,2.9,1.3,2.9,2.9
					C76.6,77.6,75.3,78.9,73.7,78.9z M73.7,75.2c-0.5,0-0.9,0.4-0.9,0.9c0,0.5,0.4,0.9,0.9,0.9c0.5,0,0.9-0.4,0.9-0.9
					C74.6,75.6,74.2,75.2,73.7,75.2z"/>
			</g>
		</g>
	</g>
	<g>
		<path class="st0" d="M98.3,85.9C98.3,85.9,98.3,85.9,98.3,85.9l-6.6,0c-0.6,0-1-0.5-1-1s0.4-1,1-1c0,0,0,0,0,0l6.6,0
			c0.6,0,1,0.5,1,1S98.9,85.9,98.3,85.9z"/>
		<path class="st0" d="M95,91C95,91,95,91,95,91c-0.3,0-0.6-0.2-0.8-0.4L90.8,86c-0.1-0.2-0.2-0.4-0.2-0.6l0.1-48.2
			c0-1.8,1.5-3.3,3.3-3.3c0,0,0,0,0,0l2,0c0.9,0,1.7,0.3,2.3,1c0.6,0.6,1,1.5,1,2.3l-0.1,48.2c0,0.2-0.1,0.4-0.2,0.6l-3.4,4.6
			C95.6,90.8,95.3,91,95,91z M92.6,85l2.3,3.2l2.4-3.2l0.1-47.9c0-0.3-0.1-0.7-0.4-0.9c-0.2-0.2-0.6-0.4-0.9-0.4l-2,0c0,0,0,0,0,0
			c-0.7,0-1.3,0.6-1.3,1.3v0L92.6,85z"/>
		<path class="st0" d="M98.4,41C98.4,41,98.4,41,98.4,41l-6.7,0c-0.6,0-1-0.4-1-1c0-0.6,0.4-1,1-1c0,0,0,0,0,0l6.7,0
			c0.6,0,1,0.4,1,1C99.4,40.5,98.9,41,98.4,41z"/>
	</g>
</g>
</svg>
