<?xml version="1.0" encoding="utf-8"?>
<!-- Generator: Adobe Illustrator 19.1.0, SVG Export Plug-In . SVG Version: 6.00 Build 0)  -->
<svg version="1.1" id="Layer_1" xmlns="http://www.w3.org/2000/svg" xmlns:xlink="http://www.w3.org/1999/xlink" x="0px" y="0px"
	 viewBox="0 0 120 100" style="enable-background:new 0 0 120 100;" xml:space="preserve">
<style type="text/css">
	.st0{fill:#8F97A1;}
	.st1{fill-rule:evenodd;clip-rule:evenodd;fill:#8F97A1;}
</style>
<g>
	<path class="st0" d="M98.9,32.6c-0.4,0-0.7-0.2-0.9-0.5c-4-7.5-10.1-13.6-17.6-17.6c-0.3-0.2-0.5-0.5-0.5-0.9
		c0-0.4,0.3-0.7,0.6-0.9c1.8-0.7,3.7-1.1,5.7-1.1c8.2,0,14.8,6.6,14.8,14.8c0,2-0.4,3.9-1.1,5.7C99.7,32.3,99.4,32.6,98.9,32.6
		C99,32.6,98.9,32.6,98.9,32.6z M83.4,13.8c6.3,3.8,11.5,9,15.3,15.3c0.2-0.9,0.3-1.9,0.3-2.8c0-7.1-5.7-12.8-12.8-12.8
		C85.2,13.5,84.3,13.6,83.4,13.8z"/>
	<path class="st0" d="M59,30.7v20.4c0,0.6,0.5,1,1,1h16.3c0.6,0,1-0.5,1-1c0-0.6-0.5-1-1-1H61V30.7c0-0.6-0.5-1-1-1
		C59.4,29.7,59,30.1,59,30.7z"/>
	<g>
		<path class="st0" d="M29.5,87.2l7.7-7.7l2.1,1.5c6.1,4.3,13.3,6.5,20.8,6.5c7.5,0,14.7-2.3,20.8-6.6l2.1-1.5l7.7,7.7
			c0.2,0.2,0.4,0.3,0.7,0.3c0.5,0,1-0.4,1-1c0-0.3-0.1-0.5-0.3-0.7l-7.6-7.6l2-2.1c6.4-6.8,9.9-15.7,9.9-24.9
			C96.4,31,80.1,14.7,60,14.7S23.6,31,23.6,51.1c0,9.3,3.5,18.1,9.9,24.9l2,2.1L28,85.7c-0.2,0.2-0.3,0.5-0.3,0.7c0,0.6,0.5,1,1,1
			C29,87.5,29.3,87.4,29.5,87.2z M25.7,51.1c0-18.9,15.4-34.3,34.3-34.3c18.9,0,34.3,15.4,34.3,34.3S78.9,85.4,60,85.4
			C41.1,85.4,25.7,70,25.7,51.1z"/>
		<path class="st0" d="M91.3,87.6c-0.3,0-0.6-0.1-0.8-0.3l-7.7-7.6l-2,1.4c-6.2,4.3-13.4,6.6-20.9,6.6c-7.5,0-14.7-2.3-20.8-6.6
			l-2-1.4l-7.6,7.6c0,0,0,0,0,0c-0.2,0.2-0.5,0.3-0.8,0.3c-0.6,0-1.2-0.5-1.2-1.2c0-0.3,0.1-0.6,0.3-0.8l7.5-7.5l-1.9-2.1
			c-6.4-6.8-10-15.7-10-25C23.5,31,39.9,14.6,60,14.6S96.5,31,96.5,51.1c0,9.3-3.5,18.2-10,25l-1.9,2.1l7.5,7.5
			c0.2,0.2,0.3,0.5,0.3,0.8C92.4,87.1,91.9,87.6,91.3,87.6z M82.9,79.4C82.9,79.4,83,79.4,82.9,79.4l7.8,7.8
			c0.2,0.2,0.4,0.3,0.6,0.3c0.5,0,0.9-0.4,0.9-0.9c0-0.2-0.1-0.5-0.3-0.6l-7.6-7.6c0,0,0-0.1,0-0.2l2-2.1c6.4-6.8,9.9-15.6,9.9-24.9
			c0-20-16.3-36.3-36.3-36.3S23.7,31.1,23.7,51.1c0,9.2,3.5,18.1,9.9,24.8l2,2.1c0,0,0,0.1,0,0.2l-7.6,7.6c-0.2,0.2-0.3,0.4-0.3,0.6
			c0,0.5,0.4,0.9,0.9,0.9c0.2,0,0.5-0.1,0.6-0.3l7.7-7.7c0,0,0.1,0,0.2,0l2.1,1.5c6.1,4.3,13.3,6.5,20.7,6.5
			c7.4,0,14.6-2.3,20.7-6.5L82.9,79.4C82.8,79.4,82.9,79.4,82.9,79.4z M60,85.5c-19,0-34.4-15.4-34.4-34.4S41,16.7,60,16.7
			s34.4,15.4,34.4,34.4S79,85.5,60,85.5z M60,16.9c-18.8,0-34.2,15.3-34.2,34.2S41.2,85.3,60,85.3S94.2,70,94.2,51.1
			S78.8,16.9,60,16.9z"/>
	</g>
	<path class="st0" d="M21.1,33.1C21.1,33.1,21.1,33.1,21.1,33.1c-0.4,0-0.8-0.3-0.9-0.6c-0.8-1.9-1.2-3.8-1.2-5.9
		c0-8.3,6.8-15.1,15.1-15.1c2.1,0,4,0.4,5.9,1.2c0.4,0.2,0.6,0.5,0.6,0.9c0,0.4-0.2,0.7-0.5,0.9c-7.7,4.1-14,10.4-18.1,18.1
		C21.9,32.9,21.5,33.1,21.1,33.1z M34.2,13.5c-7.2,0-13.1,5.9-13.1,13.1c0,1,0.1,2.1,0.4,3.1c3.9-6.5,9.3-11.9,15.8-15.8
		C36.2,13.6,35.2,13.5,34.2,13.5z"/>
	<path class="st0" d="M60,23c-0.6,0-1-0.4-1-1v-5.2c0-0.6,0.4-1,1-1s1,0.4,1,1V22C61,22.6,60.6,23,60,23z"/>
	<path class="st0" d="M60,87c-0.6,0-1-0.4-1-1v-5.2c0-0.6,0.4-1,1-1s1,0.4,1,1V86C61,86.6,60.6,87,60,87z"/>
	<path class="st0" d="M30.6,52.4h-5.2c-0.6,0-1-0.4-1-1s0.4-1,1-1h5.2c0.6,0,1,0.4,1,1S31.2,52.4,30.6,52.4z"/>
	<path class="st0" d="M94.6,52.4h-5.2c-0.6,0-1-0.4-1-1s0.4-1,1-1h5.2c0.6,0,1,0.4,1,1S95.2,52.4,94.6,52.4z"/>
	<path class="st0" d="M39.2,31.6c-0.3,0-0.5-0.1-0.7-0.3l-3.7-3.7c-0.4-0.4-0.4-1,0-1.4s1-0.4,1.4,0l3.7,3.7c0.4,0.4,0.4,1,0,1.4
		C39.7,31.5,39.5,31.6,39.2,31.6z"/>
	<path class="st0" d="M84.5,76.9c-0.3,0-0.5-0.1-0.7-0.3l-3.7-3.7c-0.4-0.4-0.4-1,0-1.4s1-0.4,1.4,0l3.7,3.7c0.4,0.4,0.4,1,0,1.4
		C85,76.8,84.7,76.9,84.5,76.9z"/>
	<path class="st0" d="M35.5,76.9c-0.3,0-0.5-0.1-0.7-0.3c-0.4-0.4-0.4-1,0-1.4l3.7-3.7c0.4-0.4,1-0.4,1.4,0s0.4,1,0,1.4l-3.7,3.7
		C36,76.8,35.8,76.9,35.5,76.9z"/>
	<path class="st0" d="M80.8,31.6c-0.3,0-0.5-0.1-0.7-0.3c-0.4-0.4-0.4-1,0-1.4l3.7-3.7c0.4-0.4,1-0.4,1.4,0s0.4,1,0,1.4l-3.7,3.7
		C81.3,31.5,81,31.6,80.8,31.6z"/>
</g>
</svg>
