<?xml version="1.0" encoding="utf-8"?>
<!-- Generator: Adobe Illustrator 19.1.0, SVG Export Plug-In . SVG Version: 6.00 Build 0)  -->
<svg version="1.1" id="Layer_1" xmlns="http://www.w3.org/2000/svg" xmlns:xlink="http://www.w3.org/1999/xlink" x="0px" y="0px"
	 viewBox="0 0 120 100" style="enable-background:new 0 0 120 100;" xml:space="preserve">
<style type="text/css">
	.st0{fill:#FFFFFF;}
	.st1{fill-rule:evenodd;clip-rule:evenodd;fill:#FFFFFF;}
</style>
<g>
	<g>
		<path class="st0" d="M80,91H40c-1.3,0-2.5-0.6-3.2-1.7s-0.9-2.4-0.4-3.6l16.9-43.9c0.1-0.2,0.1-0.5,0.1-0.7v-8.2
			c-0.7-0.5-1.2-1.4-1.2-2.3v-1.8c0-1.5,1.2-2.8,2.8-2.8h10c1.5,0,2.8,1.2,2.8,2.8v1.8c0,0.9-0.5,1.8-1.2,2.3v8.2
			c0,0.2,0,0.5,0.1,0.7l16.9,43.9c0,0,0,0,0,0c0.5,1.2,0.3,2.6-0.4,3.6C82.4,90.4,81.2,91,80,91z M55,28c-0.4,0-0.8,0.3-0.8,0.8v1.8
			c0,0.3,0.2,0.6,0.5,0.7c0.4,0.1,0.7,0.5,0.7,0.9v8.8c0,0.5-0.1,1-0.3,1.4L38.3,86.4c-0.2,0.6-0.2,1.2,0.2,1.8
			c0.4,0.5,0.9,0.8,1.6,0.8H80c0.6,0,1.2-0.3,1.6-0.8c0.4-0.5,0.4-1.2,0.2-1.8L64.8,42.5c-0.2-0.5-0.3-0.9-0.3-1.4v-8.8
			c0-0.4,0.3-0.8,0.7-0.9c0.3-0.1,0.5-0.4,0.5-0.7v-1.8c0-0.4-0.3-0.8-0.8-0.8H55z"/>
		<path class="st0" d="M57,59.6h-9.2c-0.6,0-1-0.4-1-1s0.4-1,1-1H57c0.6,0,1,0.4,1,1S57.5,59.6,57,59.6z"/>
		<path class="st0" d="M57,67.6H44.8c-0.6,0-1-0.4-1-1s0.4-1,1-1H57c0.6,0,1,0.4,1,1S57.5,67.6,57,67.6z"/>
		<path class="st0" d="M57,75.6H41.7c-0.6,0-1-0.4-1-1s0.4-1,1-1H57c0.6,0,1,0.4,1,1S57.5,75.6,57,75.6z"/>
		<path class="st0" d="M57,83.6H38.6c-0.6,0-1-0.4-1-1s0.4-1,1-1H57c0.6,0,1,0.4,1,1S57.5,83.6,57,83.6z"/>
	</g>
	<path class="st0" d="M57.5,23.4c-1.9,0-3.5-1.6-3.5-3.5s1.6-3.5,3.5-3.5S61,18,61,19.9S59.4,23.4,57.5,23.4z M57.5,18.5
		c-0.8,0-1.5,0.7-1.5,1.5c0,0.8,0.7,1.5,1.5,1.5s1.5-0.7,1.5-1.5C59,19.1,58.3,18.5,57.5,18.5z"/>
	<path class="st0" d="M63.8,16c-1.9,0-3.5-1.6-3.5-3.5S61.9,9,63.8,9s3.5,1.6,3.5,3.5S65.7,16,63.8,16z M63.8,11
		c-0.8,0-1.5,0.7-1.5,1.5c0,0.8,0.7,1.5,1.5,1.5c0.8,0,1.5-0.7,1.5-1.5C65.3,11.7,64.6,11,63.8,11z"/>
</g>
</svg>
