<?xml version="1.0" encoding="utf-8"?>
<!-- Generator: Adobe Illustrator 19.1.0, SVG Export Plug-In . SVG Version: 6.00 Build 0)  -->
<svg version="1.1" id="Layer_1" xmlns="http://www.w3.org/2000/svg" xmlns:xlink="http://www.w3.org/1999/xlink" x="0px" y="0px"
	 viewBox="0 0 120 100" style="enable-background:new 0 0 120 100;" xml:space="preserve">
<style type="text/css">
	.st0{fill:#8F97A1;}
	.st1{fill-rule:evenodd;clip-rule:evenodd;fill:#8F97A1;}
</style>
<g>
	<path class="st0" d="M34.3,55.4h-7.6c-4.3,0-7.7-3.5-7.7-7.7V25.8c0-4.3,3.5-7.7,7.7-7.7h47.7c4.3,0,7.7,3.5,7.7,7.7v4.7
		c0,0.6-0.4,1-1,1s-1-0.4-1-1v-4.7c0-3.2-2.6-5.7-5.7-5.7H26.7c-3.2,0-5.7,2.6-5.7,5.7v21.9c0,3.2,2.6,5.7,5.7,5.7h7.6
		c0.6,0,1,0.4,1,1S34.8,55.4,34.3,55.4z"/>
	<path class="st0" d="M76.8,81.9c-0.1,0-0.2,0-0.3-0.1c-0.4-0.1-0.7-0.5-0.7-0.9V70.4H45.6c-4.3,0-7.7-3.5-7.7-7.7V40.8
		c0-4.3,3.5-7.7,7.7-7.7h47.7c4.3,0,7.7,3.5,7.7,7.7v21.9c0,4.3-3.5,7.7-7.7,7.7h-7.1l-8.6,11.2C77.4,81.8,77.1,81.9,76.8,81.9z
		 M45.6,35.1c-3.2,0-5.7,2.6-5.7,5.7v21.9c0,3.2,2.6,5.7,5.7,5.7h31.3c0.6,0,1,0.4,1,1V78l7.1-9.2c0.2-0.2,0.5-0.4,0.8-0.4h7.6
		c3.2,0,5.7-2.6,5.7-5.7V40.8c0-3.2-2.6-5.7-5.7-5.7H45.6z"/>
	<g>
		<circle class="st0" cx="57.4" cy="51.6" r="3.2"/>
		<circle class="st0" cx="70.6" cy="51.6" r="3.2"/>
		<circle class="st0" cx="83.8" cy="51.6" r="3.2"/>
	</g>
</g>
</svg>
