<?xml version="1.0" encoding="utf-8"?>
<!-- Generator: Adobe Illustrator 19.1.0, SVG Export Plug-In . SVG Version: 6.00 Build 0)  -->
<svg version="1.1" id="Layer_1" xmlns="http://www.w3.org/2000/svg" xmlns:xlink="http://www.w3.org/1999/xlink" x="0px" y="0px"
	 viewBox="0 0 120 100" style="enable-background:new 0 0 120 100;" xml:space="preserve">
<style type="text/css">
	.st0{fill:#8F97A1;}
	.st1{fill-rule:evenodd;clip-rule:evenodd;fill:#8F97A1;}
</style>
<g>
	<path class="st0" d="M85.7,91H34.3c-3.5,0-6.3-2.8-6.3-6.3V15.3c0-3.5,2.8-6.3,6.3-6.3h39.9c2.4,0,4.7,0.9,6.4,2.7l8.8,8.8
		c1.7,1.7,2.7,4,2.7,6.4v57.7C92.1,88.2,89.2,91,85.7,91z M34.3,11c-2.4,0-4.3,1.9-4.3,4.3v69.4c0,2.4,1.9,4.3,4.3,4.3h51.5
		c2.4,0,4.3-1.9,4.3-4.3V26.9c0-1.9-0.7-3.7-2.1-5l-8.8-8.8c-1.3-1.3-3.1-2.1-5-2.1H34.3z"/>
	<path class="st0" d="M79,35H41c-0.6,0-1-0.4-1-1s0.4-1,1-1h38c0.6,0,1,0.4,1,1S79.5,35,79,35z"/>
	<path class="st0" d="M79,51H41c-0.6,0-1-0.4-1-1s0.4-1,1-1h38c0.6,0,1,0.4,1,1S79.5,51,79,51z"/>
	<path class="st0" d="M79,67H41c-0.6,0-1-0.4-1-1s0.4-1,1-1h38c0.6,0,1,0.4,1,1S79.5,67,79,67z"/>
</g>
</svg>
