<?xml version="1.0" encoding="utf-8"?>
<!-- Generator: Adobe Illustrator 19.1.0, SVG Export Plug-In . SVG Version: 6.00 Build 0)  -->
<svg version="1.1" id="Layer_1" xmlns="http://www.w3.org/2000/svg" xmlns:xlink="http://www.w3.org/1999/xlink" x="0px" y="0px"
	 viewBox="0 0 120 100" style="enable-background:new 0 0 120 100;" xml:space="preserve">
<style type="text/css">
	.st0{fill:#00A4C4;}
	.st1{fill-rule:evenodd;clip-rule:evenodd;fill:#00A4C4;}
</style>
<g>
	<path class="st0" d="M60,86c-0.6,0-1.3-0.1-1.9-0.3l-36.9-12c-1.9-0.7-3.1-2.3-3.1-4.1V18.7c0-2.3,1.6-4.2,3.9-4.6
		c0.9-0.2,1.9-0.1,2.8,0.2L60,25.8l35.2-11.4c0.9-0.3,1.8-0.4,2.8-0.2c2.2,0.4,3.9,2.3,3.9,4.6v50.8c0,1.8-1.2,3.4-3,4.1
		c0,0,0,0,0,0l-37,12.1C61.3,85.9,60.6,86,60,86z M23,16c-0.2,0-0.4,0-0.6,0.1c-1.3,0.2-2.2,1.3-2.2,2.6v50.8c0,1,0.7,1.9,1.7,2.2
		l36.9,12.1c0.8,0.3,1.6,0.3,2.4,0l37-12.1c1-0.4,1.7-1.3,1.7-2.2V18.7c0-1.3-1-2.4-2.2-2.6c-0.6-0.1-1.2-0.1-1.7,0.1L60.4,27.7
		c-0.2,0.1-0.5,0.1-0.7,0L24.2,16.2c0,0-0.1,0-0.1-0.1C23.7,16.1,23.3,16,23,16z"/>
	<path class="st0" d="M68.1,40.9c-0.4,0-0.8-0.3-0.9-0.7c-0.2-0.5,0.1-1.1,0.6-1.3l23.3-8c0.5-0.2,1.1,0.1,1.3,0.6
		c0.2,0.5-0.1,1.1-0.6,1.3l-23.3,8C68.3,40.9,68.2,40.9,68.1,40.9z"/>
	<path class="st0" d="M51.9,40.9c-0.1,0-0.2,0-0.3-0.1l-23.3-8c-0.5-0.2-0.8-0.7-0.6-1.3c0.2-0.5,0.7-0.8,1.3-0.6l23.3,8
		c0.5,0.2,0.8,0.7,0.6,1.3C52.7,40.6,52.3,40.9,51.9,40.9z"/>
	<path class="st0" d="M68.1,54c-0.4,0-0.8-0.3-0.9-0.7c-0.2-0.5,0.1-1.1,0.6-1.3l23.3-8c0.5-0.2,1.1,0.1,1.3,0.6
		c0.2,0.5-0.1,1.1-0.6,1.3l-23.3,8C68.3,54,68.2,54,68.1,54z"/>
	<path class="st0" d="M51.9,54c-0.1,0-0.2,0-0.3-0.1l-23.3-8c-0.5-0.2-0.8-0.7-0.6-1.3c0.2-0.5,0.7-0.8,1.3-0.6l23.3,8
		c0.5,0.2,0.8,0.7,0.6,1.3C52.7,53.7,52.3,54,51.9,54z"/>
	<path class="st0" d="M68.1,67.1c-0.4,0-0.8-0.3-0.9-0.7c-0.2-0.5,0.1-1.1,0.6-1.3l23.3-8c0.5-0.2,1.1,0.1,1.3,0.6
		c0.2,0.5-0.1,1.1-0.6,1.3l-23.3,8C68.3,67.1,68.2,67.1,68.1,67.1z"/>
	<path class="st0" d="M51.9,67.1c-0.1,0-0.2,0-0.3-0.1l-23.3-8c-0.5-0.2-0.8-0.7-0.6-1.3c0.2-0.5,0.7-0.8,1.3-0.6l23.3,8
		c0.5,0.2,0.8,0.7,0.6,1.3C52.7,66.8,52.3,67.1,51.9,67.1z"/>
	<path class="st0" d="M60,86c-0.6,0-1-0.4-1-1V26.8c0-0.6,0.4-1,1-1s1,0.4,1,1V85C61,85.6,60.6,86,60,86z"/>
</g>
</svg>
