<?xml version="1.0" encoding="utf-8"?>
<!-- Generator: Adobe Illustrator 19.1.0, SVG Export Plug-In . SVG Version: 6.00 Build 0)  -->
<svg version="1.1" id="Layer_1" xmlns="http://www.w3.org/2000/svg" xmlns:xlink="http://www.w3.org/1999/xlink" x="0px" y="0px"
	 viewBox="0 0 120 100" style="enable-background:new 0 0 120 100;" xml:space="preserve">
<style type="text/css">
	.st0{fill:#F47B29;}
	.st1{fill-rule:evenodd;clip-rule:evenodd;fill:#F47B29;}
</style>
<g>
	<path class="st0" d="M81.4,60.7c-0.2,0-0.3,0-0.5-0.1c-0.5-0.3-0.6-0.9-0.4-1.4C83.4,54.4,84,49,84,45.3c0-0.5,0.5-1,1-1
		c0,0,0,0,0,0c0.6,0,1,0.5,1,1c0,3.9-0.7,9.7-3.8,14.9C82.1,60.5,81.7,60.7,81.4,60.7z"/>
	<path class="st0" d="M35.5,60.7c-0.3,0-0.7-0.2-0.9-0.5c-3.1-5.2-3.7-11-3.8-14.9c0-0.6,0.4-1,1-1c0,0,0,0,0,0c0.5,0,1,0.4,1,1
		c0,3.7,0.7,9.1,3.5,13.9c0.3,0.5,0.1,1.1-0.4,1.4C35.9,60.7,35.7,60.7,35.5,60.7z"/>
	<path class="st0" d="M58.2,40c-0.7,0-1.3-0.2-1.9-0.6L23.7,23.2c0,0-0.1,0-0.1-0.1c-0.8-0.5-1.2-1.4-1-2.4c0.1-0.9,0.8-1.7,1.7-2
		l31.4-9.4c1.7-0.5,3.6-0.5,5.3,0l31.4,9.4c0.9,0.3,1.6,1,1.7,2c0.1,0.9-0.3,1.8-1,2.4c0,0-0.1,0-0.1,0.1L60.1,39.4
		C59.5,39.8,58.9,40,58.2,40z M24.6,21.5l32.6,16.2c0,0,0.1,0,0.1,0.1c0.5,0.3,1.2,0.3,1.7,0c0,0,0.1,0,0.1-0.1l32.6-16.2
		c0.2-0.1,0.2-0.3,0.1-0.4c0-0.1-0.1-0.3-0.3-0.3l-31.4-9.4c-1.4-0.4-2.8-0.4-4.1,0l-31.4,9.4c-0.2,0.1-0.3,0.2-0.3,0.3
		C24.5,21.2,24.5,21.3,24.6,21.5z"/>
	<g>
		<path class="st0" d="M49.3,91H19.9c-0.6,0-1-0.4-1-1s0.4-1,1-1h28.3L48,82.4c0-0.6,0.4-1,1-1c0.6,0,1,0.4,1,1l0.3,7.7
			c0,0.3-0.1,0.5-0.3,0.7C49.8,90.9,49.6,91,49.3,91z"/>
		<path class="st0" d="M96.5,91H67.1c-0.3,0-0.5-0.1-0.7-0.3c-0.2-0.2-0.3-0.5-0.3-0.7l0.3-7.7c0-0.6,0.5-1,1-1c0.6,0,1,0.5,1,1
			L68.2,89h28.3c0.6,0,1,0.4,1,1S97,91,96.5,91z"/>
	</g>
	<path class="st0" d="M96,46.3c-0.4,0-0.8-0.2-0.9-0.6c-3.9-8.8-8.6-18.6-9.9-20.3l-26.1-5.5c-0.5-0.1-0.9-0.6-0.8-1.2
		c0.1-0.5,0.6-0.9,1.2-0.8l26.5,5.6c0.2,0,0.3,0.1,0.5,0.2c1.9,1.7,9.1,17.9,10.5,21.2c0.2,0.5,0,1.1-0.5,1.3
		C96.3,46.3,96.1,46.3,96,46.3z"/>
	<path class="st0" d="M97.8,45.1L95,46.4c-0.3,0.1-0.4,0.4-0.4,0.6l-0.1,1.6c0,0.4,0.3,0.8,0.7,0.8l2.5,0c0.2,0,0.4-0.1,0.6-0.2
		l1.6-1.9c0.3-0.3,0.2-0.8-0.1-1l-1.2-1C98.4,45,98.1,45,97.8,45.1z"/>
	<circle class="st0" cx="58.2" cy="18.9" r="2.3"/>
	<g>
		<path class="st0" d="M58.4,85.8c-13.3,0-24-15.8-24-28.9c0-3.1,0.6-6,1.8-8.6c0.1-0.2,0.3-0.4,0.6-0.5c0.3-0.1,0.5-0.1,0.8,0.1
			c5.3,2.7,12.3,4,20.7,4c8.6,0,15.6-1.4,21-4.2c0.2-0.1,0.5-0.1,0.8-0.1c0.3,0.1,0.5,0.3,0.6,0.5c1.3,2.6,1.9,5.6,1.9,8.8
			C82.4,70,71.7,85.8,58.4,85.8z M37.6,50.1c-0.8,2.1-1.2,4.4-1.2,6.9c0,12.2,9.8,26.9,22,26.9s22-14.7,22-26.9c0-2.5-0.4-4.9-1.3-7
			c-5.5,2.6-12.6,3.9-20.9,3.9C50,53.9,43.1,52.6,37.6,50.1z"/>
	</g>
	<path class="st0" d="M58.2,53.9C34.8,53.9,29,43.4,28.8,43c-0.1-0.3-0.2-0.5-0.1-0.8l5.5-14.7c0.1-0.3,0.3-0.5,0.6-0.6
		c0.3-0.1,0.6-0.1,0.8,0l21.7,10.8c0,0,0.1,0,0.1,0.1c0.5,0.3,1.2,0.3,1.7,0c0,0,0.1,0,0.1-0.1l21.7-10.8c0.3-0.1,0.5-0.1,0.8,0
		c0.3,0.1,0.5,0.3,0.6,0.6l5.5,14.7c0.1,0.3,0.1,0.6-0.1,0.8C87.4,43.4,81.7,53.9,58.2,53.9z M30.8,42.4c1.2,1.7,7.7,9.4,27.4,9.4
		c19.8,0,26.2-7.7,27.4-9.4l-4.9-13.2L60.1,39.4c-1.2,0.8-2.6,0.8-3.8,0L35.7,29.2L30.8,42.4z"/>
</g>
</svg>
