<?xml version="1.0" encoding="utf-8"?>
<!-- Generator: Adobe Illustrator 19.1.0, SVG Export Plug-In . SVG Version: 6.00 Build 0)  -->
<svg version="1.1" id="Layer_1" xmlns="http://www.w3.org/2000/svg" xmlns:xlink="http://www.w3.org/1999/xlink" x="0px" y="0px"
	 viewBox="0 0 120 100" style="enable-background:new 0 0 120 100;" xml:space="preserve">
<style type="text/css">
	.st0{fill:#8F97A1;}
	.st1{fill-rule:evenodd;clip-rule:evenodd;fill:#8F97A1;}
</style>
<g>
	<path class="st0" d="M92.6,91H27.4c-2.3,0-4.1-1.8-4.1-4.1c0-1.3,1.4-13.3,6.5-13.7c7.3-0.6,18.9-3.2,21.9-3.9l0-2.3
		c-9.7-1.5-12.1-5.6-12-7.6c0.1-1.6,0.5-3.2,0.9-5.1c0.6-2.5,1.4-5.6,1.9-10.5C44,29.3,50.8,20,60,20c9.8,0,15.2,5.6,17.5,18.3
		c1.6,8.7,2.7,17.5,2.8,21c0.1,2-2.3,6.1-12,7.6l0,2.3c3.2,0.8,15.9,4.1,21.8,4h0c0.9,0,1.8,0.3,2.5,1.1c3,2.9,4,11.1,4,12.6
		C96.7,89.2,94.9,91,92.6,91z M60,22c-8.1,0-14.2,8.6-15.5,21.9c-0.5,5-1.3,8.2-1.9,10.8c-0.5,1.9-0.8,3.3-0.9,4.8
		c0,0.9,1.7,4.4,11.2,5.7c0.5,0.1,0.9,0.5,0.9,1l0,4c0,0.5-0.3,0.9-0.8,1c-0.1,0-14.4,3.4-23,4.1c-2.9,0.3-4.7,9.5-4.7,11.7
		c0,1.2,0.9,2.1,2.1,2.1h65.3c1.2,0,2.1-0.9,2.1-2.1c0-1.5-1.1-8.9-3.4-11.2c-0.4-0.4-0.7-0.6-1.1-0.5c0,0,0,0,0,0
		c-6.9,0.1-22.5-4.1-23.1-4.2c-0.4-0.1-0.7-0.5-0.7-1l0-3.9c0-0.5,0.4-0.9,0.9-1c9.4-1.3,11.2-4.8,11.2-5.7
		c-0.2-3.4-1.2-12.1-2.8-20.7C73.5,27,68.8,22,60,22z"/>
	<path class="st0" d="M95.1,91H24.9c-3.2,0-5.9-2.6-5.9-5.9V14.9c0-3.2,2.6-5.9,5.9-5.9h70.2c3.2,0,5.9,2.6,5.9,5.9v70.2
		C101,88.4,98.4,91,95.1,91z M24.9,11c-2.1,0-3.9,1.7-3.9,3.9v70.2c0,2.1,1.7,3.9,3.9,3.9h70.2c2.1,0,3.9-1.7,3.9-3.9V14.9
		c0-2.1-1.7-3.9-3.9-3.9H24.9z"/>
</g>
</svg>
