<?xml version="1.0" encoding="utf-8"?>
<!-- Generator: Adobe Illustrator 19.1.0, SVG Export Plug-In . SVG Version: 6.00 Build 0)  -->
<svg version="1.1" id="Layer_1" xmlns="http://www.w3.org/2000/svg" xmlns:xlink="http://www.w3.org/1999/xlink" x="0px" y="0px"
	 viewBox="0 0 120 100" style="enable-background:new 0 0 120 100;" xml:space="preserve">
<style type="text/css">
	.st0{fill:#00A4C4;}
	.st1{fill-rule:evenodd;clip-rule:evenodd;fill:#00A4C4;}
</style>
<g>
	<path class="st0" d="M65.2,79.6h-47c-2.3,0-4.2-1.9-4.2-4.2h0c0-1.7,0.6-12.5,9-16.7c2.9-1.4,3.8-1.6,4.8-1.7
		c0.9-0.1,2-0.3,5.1-1.6c4.6-1.9,6.7-2.9,7.5-3.4l0.1-5.3c-0.8-0.8-2.4-2.9-3.1-7.2c-0.3-0.1-0.5-0.2-0.7-0.3
		c-1.2-0.8-1.5-2.8-1.6-3.9c0-0.2,0-0.5-0.1-0.8c-0.2-2.3-0.4-4.2,0.7-5.2c0.1-0.1,0.2-0.2,0.3-0.2c-0.4-3.2-0.5-5-0.4-6.2
		C36.2,17.9,41,12.2,49,11.8c11.4,0.5,13.1,8.7,13.4,11.2c0.1,1.3-0.1,3.3-0.4,6.2c0.1,0.1,0.2,0.1,0.3,0.2c1,0.9,0.9,2.9,0.6,5.2
		c0,0.3-0.1,0.6-0.1,0.8c0,0.9-0.3,3-1.5,3.8c-0.2,0.2-0.5,0.3-0.7,0.3c-0.7,4.3-2.3,6.4-3.1,7.2l0,5.2c0.9,0.4,3,1.4,7.5,3.3
		c1.2,0.5,2.2,0.9,3,1.1c1.8,0.5,3.8,1.6,5.9,3.3c0.4,0.3,0.5,1,0.2,1.4s-1,0.5-1.4,0.2c-1.9-1.5-3.7-2.5-5.3-2.9
		c-0.9-0.3-1.9-0.7-3.2-1.2c-6.6-2.7-8.2-3.6-8.3-3.7c-0.3-0.2-0.5-0.5-0.5-0.9l-0.1-6.3c0-0.3,0.1-0.6,0.4-0.8c0,0,2.2-1.8,2.9-7.1
		c0-0.3,0.2-0.5,0.4-0.7c0.2-0.2,0.5-0.2,0.8-0.1c0.1,0,0.1,0,0.2,0c0.3-0.2,0.6-1.1,0.7-2.3c0-0.2,0-0.5,0.1-0.9
		c0.1-0.7,0.3-2.8,0-3.4c-0.3,0-0.6-0.1-0.8-0.3c-0.2-0.2-0.4-0.5-0.3-0.9c0.4-2.7,0.7-5.4,0.5-6.7c-0.3-2.7-1.9-9-11.4-9.4
		c-6.8,0.4-10.9,5.1-11.3,9.4c-0.1,1.4,0.2,4.3,0.5,6.7c0,0.3-0.1,0.6-0.3,0.9c-0.2,0.2-0.5,0.3-0.8,0.3c-0.3,0.6,0,2.7,0,3.4
		c0,0.4,0.1,0.7,0.1,0.9c0.1,1.3,0.4,2.1,0.7,2.3c0,0,0,0,0.2,0c0.3-0.1,0.6,0,0.8,0.1c0.2,0.2,0.4,0.4,0.4,0.7
		c0.7,5.3,2.8,7.1,2.9,7.1c0.2,0.2,0.4,0.5,0.4,0.8l-0.1,6.3c0,0.3-0.2,0.7-0.5,0.8c-0.1,0-1.7,1-8.3,3.8c-3.4,1.4-4.6,1.6-5.6,1.7
		c-0.9,0.1-1.6,0.2-4.2,1.5C16.3,64.3,16,74.6,16,75.4c0,0,0,0,0,0.1c0,1.2,1,2.2,2.2,2.2h47c1.5,0,3.1,0,4.6-0.1c1,0,2,0,3,0
		c0,0,0,0,0,0c0.5,0,1,0.4,1,1c0,0.6-0.4,1-1,1c-1,0-2,0-3,0C68.2,79.6,66.7,79.6,65.2,79.6z"/>
	<path id="TICK_2_" class="st1" d="M97.3,66.3L97.3,66.3L88,79l0,0c-0.2,0.3-0.6,0.5-1,0.6c-0.4,0.1-0.8,0-1.1-0.3l0,0L78.8,74l0,0
		c-0.3-0.2-0.5-0.6-0.6-1c-0.1-0.8,0.4-1.5,1.2-1.7c0.4-0.1,0.8,0,1.1,0.3l0,0l6,4.4L95,64.6l0,0c0.2-0.3,0.6-0.5,1-0.6
		c0.8-0.1,1.5,0.4,1.7,1.2C97.6,65.6,97.5,66,97.3,66.3z"/>
	<path class="st0" d="M88.4,88.2c-9.7,0-17.6-7.9-17.6-17.6S78.7,53,88.4,53c9.7,0,17.6,7.9,17.6,17.6S98.1,88.2,88.4,88.2z
		 M88.4,55c-8.6,0-15.6,7-15.6,15.6s7,15.6,15.6,15.6c8.6,0,15.6-7,15.6-15.6S97,55,88.4,55z"/>
</g>
</svg>
