<?xml version="1.0" encoding="utf-8"?>
<!-- Generator: Adobe Illustrator 19.1.0, SVG Export Plug-In . SVG Version: 6.00 Build 0)  -->
<svg version="1.1" id="Layer_1" xmlns="http://www.w3.org/2000/svg" xmlns:xlink="http://www.w3.org/1999/xlink" x="0px" y="0px"
	 viewBox="0 0 120 100" style="enable-background:new 0 0 120 100;" xml:space="preserve">
<style type="text/css">
	.st0{fill:#ffffff;}
	.st1{fill-rule:evenodd;clip-rule:evenodd;fill:#ffffff;}
</style>
<g>
	<g>
		<path class="st0" d="M97.2,65.8c-0.4,0-0.8-0.3-1-0.7c-1.4-4.4-4.1-9.6-8.5-9.6H75.3c-4.4,0-7,5.2-8.5,9.6
			c-0.2,0.5-0.7,0.8-1.3,0.6c-0.5-0.2-0.8-0.7-0.6-1.3c2.3-7.2,5.9-11,10.4-11h12.6c4.4,0,8,3.8,10.4,11c0.2,0.5-0.1,1.1-0.6,1.3
			C97.4,65.8,97.3,65.8,97.2,65.8z"/>
		<path class="st0" d="M81.5,53.8c-4.6,0-8.3-3.7-8.3-8.3c0-4.6,3.7-8.3,8.3-8.3s8.3,3.7,8.3,8.3C89.9,50,86.1,53.8,81.5,53.8z
			 M81.5,39.1c-3.5,0-6.3,2.8-6.3,6.3s2.8,6.3,6.3,6.3s6.3-2.8,6.3-6.3S85,39.1,81.5,39.1z"/>
		<path class="st0" d="M41.5,47.2c-5,0-9.1-4.1-9.1-9.1c0-5,4.1-9.1,9.1-9.1c5,0,9.1,4.1,9.1,9.1C50.5,43.1,46.5,47.2,41.5,47.2z
			 M41.5,31c-3.9,0-7.1,3.2-7.1,7.1s3.2,7.1,7.1,7.1s7.1-3.2,7.1-7.1S45.4,31,41.5,31z"/>
		<path class="st0" d="M60.1,65.8c-0.5,0-0.9-0.3-1-0.8c-1-4.8-4-15.9-10.8-15.9H34.5c-6.8,0-9.8,11.1-10.8,15.9
			c-0.1,0.5-0.6,0.9-1.2,0.8c-0.5-0.1-0.9-0.6-0.8-1.2c1.1-5.3,4.4-17.5,12.7-17.5h13.8c8.3,0,11.7,12.3,12.7,17.5
			c0.1,0.5-0.2,1.1-0.8,1.2C60.3,65.8,60.2,65.8,60.1,65.8z"/>
		<path class="st0" d="M52.8,65.8c-0.1,0-0.2,0-0.3-0.1c-0.1,0-0.2,0.1-0.4,0.1c0,0,0,0,0,0c-0.6,0-1-0.4-1-1l0-2.6
			c0-0.5,0.4-0.9,0.9-1c0.5-0.1,1,0.2,1.1,0.7l0.7,2.6c0.1,0.5-0.2,1.1-0.7,1.2C52.9,65.8,52.8,65.8,52.8,65.8z"/>
		<path class="st0" d="M30.2,65.8c-0.1,0-0.2,0-0.3,0c-0.5-0.1-0.8-0.7-0.7-1.2l0.7-2.6c0.1-0.5,0.6-0.8,1.1-0.7
			c0.5,0.1,0.9,0.5,0.9,1l0,2.6c0,0.6-0.4,1-1,1c0,0,0,0,0,0c-0.1,0-0.2,0-0.4-0.1C30.4,65.8,30.3,65.8,30.2,65.8z"/>
	</g>
	<path class="st0" d="M115.1,71c-0.3,0-0.6-0.1-0.8-0.4l-2.3-2.8c-0.7-0.9-1.8-1.4-3-1.4H10.9c-1.2,0-2.2,0.5-3,1.4l-2.3,2.8
		c-0.3,0.4-1,0.5-1.4,0.2c-0.4-0.3-0.5-1-0.2-1.4l2.3-2.8c1.1-1.4,2.8-2.2,4.5-2.2h98.1c1.8,0,3.4,0.8,4.5,2.2l2.3,2.8
		c0.3,0.4,0.3,1.1-0.2,1.4C115.5,70.9,115.3,71,115.1,71z"/>
</g>
</svg>
