<?xml version="1.0" encoding="utf-8"?>
<!-- Generator: Adobe Illustrator 19.1.0, SVG Export Plug-In . SVG Version: 6.00 Build 0)  -->
<svg version="1.1" id="Layer_1" xmlns="http://www.w3.org/2000/svg" xmlns:xlink="http://www.w3.org/1999/xlink" x="0px" y="0px"
	 viewBox="0 0 120 100" style="enable-background:new 0 0 120 100;" xml:space="preserve">
<style type="text/css">
	.st0{fill:#8F97A1;}
	.st1{fill-rule:evenodd;clip-rule:evenodd;fill:#8F97A1;}
</style>
<g>
	<path class="st0" d="M60,91c-0.3,0-0.5-0.1-0.7-0.3l-4.4-4.8l-5.6,3.3c-0.2,0.1-0.5,0.2-0.8,0.1c-0.3-0.1-0.5-0.3-0.6-0.5L44.9,83
		l-6.3,1.6c-0.3,0.1-0.6,0-0.8-0.1c-0.2-0.1-0.4-0.4-0.4-0.7l-1.2-6.4l-6.5-0.2c-0.3,0-0.5-0.1-0.7-0.3s-0.3-0.5-0.2-0.8l0.7-6.5
		l-6.2-2.1c-0.3-0.1-0.5-0.3-0.6-0.5c-0.1-0.3-0.1-0.5,0-0.8l2.5-6l-5.3-3.7c-0.2-0.2-0.4-0.4-0.4-0.7c0-0.3,0-0.6,0.2-0.8l4.1-5.1
		l-4.1-5.1c-0.2-0.2-0.3-0.5-0.2-0.8c0-0.3,0.2-0.5,0.4-0.7l5.3-3.7l-2.5-6c-0.1-0.3-0.1-0.5,0-0.8c0.1-0.3,0.3-0.4,0.6-0.5l6.2-2.1
		l-0.7-6.5c0-0.3,0.1-0.6,0.2-0.8s0.4-0.3,0.7-0.3l6.5-0.2l1.2-6.4c0-0.3,0.2-0.5,0.4-0.7c0.2-0.2,0.5-0.2,0.8-0.1l6.3,1.6l2.9-5.8
		c0.1-0.2,0.3-0.4,0.6-0.5c0.3-0.1,0.6,0,0.8,0.1l5.6,3.3l4.4-4.8c0.4-0.4,1.1-0.4,1.5,0l4.4,4.8l5.6-3.3c0.2-0.1,0.5-0.2,0.8-0.1
		c0.3,0.1,0.5,0.3,0.6,0.5l2.9,5.8l6.3-1.6c0.3-0.1,0.6,0,0.8,0.1c0.2,0.1,0.4,0.4,0.4,0.7l1.2,6.4l6.5,0.2c0.3,0,0.5,0.1,0.7,0.3
		s0.3,0.5,0.2,0.8l-0.7,6.5l6.2,2.1c0.3,0.1,0.5,0.3,0.6,0.5c0.1,0.3,0.1,0.5,0,0.8l-2.5,6l5.3,3.7c0.2,0.2,0.4,0.4,0.4,0.7
		c0,0.3,0,0.6-0.2,0.8L96.3,50l4.1,5.1c0.2,0.2,0.3,0.5,0.2,0.8c0,0.3-0.2,0.5-0.4,0.7l-5.3,3.7l2.5,6c0.1,0.3,0.1,0.5,0,0.8
		c-0.1,0.3-0.3,0.4-0.6,0.5l-6.2,2.1l0.7,6.5c0,0.3-0.1,0.6-0.2,0.8s-0.4,0.3-0.7,0.3l-6.5,0.2l-1.2,6.4c0,0.3-0.2,0.5-0.4,0.7
		c-0.2,0.2-0.5,0.2-0.8,0.1L75.1,83l-2.9,5.8c-0.1,0.2-0.3,0.4-0.6,0.5c-0.3,0.1-0.6,0-0.8-0.1l-5.6-3.3l-4.4,4.8
		C60.5,90.9,60.3,91,60,91z M55,83.6c0.3,0,0.5,0.1,0.7,0.3l4.2,4.6l4.2-4.6c0.3-0.3,0.8-0.4,1.2-0.2l5.4,3.2l2.8-5.6
		c0.2-0.4,0.7-0.6,1.1-0.5l6,1.5l1.1-6.1c0.1-0.5,0.5-0.8,0.9-0.8l6.2-0.2L88.5,69c-0.1-0.5,0.2-0.9,0.7-1.1l5.9-2l-2.4-5.8
		c-0.2-0.4,0-0.9,0.4-1.2l5.1-3.6l-3.9-4.9c-0.3-0.4-0.3-0.9,0-1.3l3.9-4.9L93,41c-0.4-0.3-0.5-0.8-0.4-1.2L95,34l-5.9-2
		c-0.4-0.1-0.7-0.6-0.7-1.1l0.7-6.2l-6.2-0.2c-0.5,0-0.9-0.4-0.9-0.8l-1.1-6.1l-6,1.5c-0.5,0.1-0.9-0.1-1.1-0.5L70.9,13l-5.4,3.2
		c-0.4,0.2-0.9,0.2-1.2-0.2L60,11.5L55.8,16c-0.3,0.3-0.8,0.4-1.2,0.2L49.1,13l-2.8,5.6c-0.2,0.4-0.7,0.6-1.1,0.5l-6-1.5l-1.1,6.1
		c-0.1,0.5-0.5,0.8-0.9,0.8l-6.2,0.2l0.7,6.2c0.1,0.5-0.2,0.9-0.7,1.1L25,34l2.4,5.8c0.2,0.4,0,0.9-0.4,1.2l-5.1,3.6l3.9,4.9
		c0.3,0.4,0.3,0.9,0,1.3l-3.9,4.9L27,59c0.4,0.3,0.5,0.8,0.4,1.2L25,66l5.9,2c0.4,0.1,0.7,0.6,0.7,1.1l-0.7,6.2l6.2,0.2
		c0.5,0,0.9,0.4,0.9,0.8l1.1,6.1l6-1.5c0.5-0.1,0.9,0.1,1.1,0.5l2.8,5.6l5.4-3.2C54.7,83.7,54.8,83.6,55,83.6z"/>
	<path class="st0" d="M60,79.8c-16.4,0-29.8-13.3-29.8-29.8S43.6,20.2,60,20.2S89.8,33.6,89.8,50S76.4,79.8,60,79.8z M60,22.2
		c-15.3,0-27.8,12.4-27.8,27.8S44.7,77.8,60,77.8S87.8,65.3,87.8,50S75.3,22.2,60,22.2z"/>
</g>
</svg>
