<?xml version="1.0" encoding="utf-8"?>
<!-- Generator: Adobe Illustrator 19.1.0, SVG Export Plug-In . SVG Version: 6.00 Build 0)  -->
<svg version="1.1" id="Layer_1" xmlns="http://www.w3.org/2000/svg" xmlns:xlink="http://www.w3.org/1999/xlink" x="0px" y="0px"
	 viewBox="0 0 120 100" style="enable-background:new 0 0 120 100;" xml:space="preserve">
<style type="text/css">
	.st0{fill:#8F97A1;}
	.st1{fill-rule:evenodd;clip-rule:evenodd;fill:#8F97A1;}
</style>
<g>
	<path class="st0" d="M59.5,39c-0.6,0-1.3-0.2-1.9-0.5L26.2,22.8c0,0-0.1,0-0.1-0.1c-0.8-0.5-1.2-1.4-1-2.3c0.1-0.9,0.8-1.6,1.7-1.9
		L57,9.4c1.7-0.5,3.4-0.5,5.1,0l30.3,9.1c0.9,0.3,1.5,1,1.7,1.9c0.1,0.9-0.2,1.8-1,2.3c0,0-0.1,0-0.1,0.1L61.4,38.4
		C60.8,38.8,60.2,39,59.5,39z M27.1,21l31.5,15.6c0,0,0.1,0,0.1,0.1c0.5,0.3,1.1,0.3,1.6,0c0,0,0.1,0,0.1-0.1L91.9,21
		c0.1-0.1,0.1-0.3,0.1-0.3c0-0.1-0.1-0.2-0.3-0.3l-30.3-9.1c-1.3-0.4-2.7-0.4-4,0l-30.3,9.1c-0.2,0.1-0.2,0.2-0.3,0.3
		C27,20.8,27,20.9,27.1,21z"/>
	<path class="st0" d="M96,45.1c-0.4,0-0.8-0.2-0.9-0.6c-3.2-7.3-8.2-17.9-9.5-19.6l-25.2-5.3c-0.5-0.1-0.9-0.6-0.8-1.2
		c0.1-0.5,0.6-0.9,1.2-0.8L86.3,23c0.2,0,0.3,0.1,0.5,0.2c1.8,1.7,8.8,17.3,10.1,20.4c0.2,0.5,0,1.1-0.5,1.3
		C96.3,45.1,96.1,45.1,96,45.1z"/>
	<path class="st0" d="M97.8,43.9L95,45.1c-0.2,0.1-0.4,0.3-0.4,0.6l-0.1,1.5c0,0.4,0.3,0.7,0.7,0.7l2.4,0c0.2,0,0.4-0.1,0.5-0.2
		l1.6-1.8c0.3-0.3,0.2-0.8-0.1-1l-1.2-1C98.3,43.8,98,43.7,97.8,43.9z"/>
	<circle class="st0" cx="59.5" cy="18.6" r="2.2"/>
	<path class="st0" d="M59.7,52.4c-22.7,0-28.2-10.1-28.4-10.5c-0.1-0.3-0.2-0.5-0.1-0.8l5.3-14.2c0.1-0.3,0.3-0.5,0.6-0.6
		c0.3-0.1,0.6-0.1,0.8,0l20.9,10.4c0,0,0.1,0,0.1,0.1c0.5,0.3,1.1,0.3,1.6,0c0,0,0.1,0,0.1-0.1l20.9-10.4c0.3-0.1,0.5-0.1,0.8,0
		c0.3,0.1,0.5,0.3,0.6,0.6L88.2,41c0.1,0.3,0.1,0.6-0.1,0.8C87.9,42.3,82.4,52.4,59.7,52.4z M33.3,41.3c1.2,1.7,7.5,9.1,26.4,9.1
		c18.9,0,25.2-7.4,26.4-9.1l-4.7-12.7l-19.9,9.9c-1.1,0.7-2.6,0.7-3.7,0L38,28.6L33.3,41.3z"/>
	<path class="st0" d="M99.4,91H68.7c-0.3,0-0.5-0.1-0.7-0.3c-0.2-0.2-0.3-0.5-0.3-0.7l0.4-10.8c0-0.6,0.5-1,1-1c0.6,0,1,0.5,1,1
		L69.8,89h28.3c-0.7-2-2.3-5.8-5.4-7c-1.6-0.7-3.8-3.5-6.3-19.8c-1.3-8.9-2.1-17.6-2.1-17.7c0-0.6,0.4-1,0.9-1.1
		c0.6-0.1,1,0.4,1.1,0.9c1.8,21.3,5.1,35,7.1,35.8c5.2,2.1,6.9,9.4,7,9.7c0.1,0.3,0,0.6-0.2,0.8C100,90.9,99.7,91,99.4,91z"/>
	<path class="st0" d="M50.7,91H20.1c-0.3,0-0.6-0.1-0.8-0.4c-0.2-0.2-0.3-0.5-0.2-0.8c0.1-0.3,1.8-7.5,7-9.7
		c2.1-0.8,5.3-14.5,7.1-35.8c0-0.5,0.5-1,1.1-0.9c0.6,0,1,0.5,0.9,1.1c0,0.1-0.8,8.8-2.1,17.7c-2.5,16.3-4.6,19.2-6.3,19.8
		c-3.1,1.3-4.7,5.1-5.4,7h28.3l-0.4-9.7c0-0.6,0.4-1,1-1c0.6,0,1,0.4,1,1L51.7,90c0,0.3-0.1,0.5-0.3,0.7C51.3,90.9,51,91,50.7,91z"
		/>
	<g>
		<path class="st0" d="M59.7,83.2c-12.9,0-23.2-15.3-23.2-27.9c0-3,0.6-5.8,1.7-8.4c0.1-0.2,0.3-0.4,0.6-0.5
			c0.3-0.1,0.5-0.1,0.8,0.1c5.1,2.6,11.8,3.9,19.9,3.9c8.2,0,15.1-1.4,20.2-4c0.2-0.1,0.5-0.1,0.8-0.1c0.3,0.1,0.5,0.3,0.6,0.5
			c1.2,2.6,1.8,5.4,1.8,8.5C82.9,67.9,72.6,83.2,59.7,83.2z M39.7,48.7c-0.8,2-1.2,4.2-1.2,6.6c0,11.7,9.5,25.9,21.2,25.9
			S80.9,67,80.9,55.3c0-2.4-0.4-4.7-1.2-6.7c-5.3,2.5-12.1,3.8-20.2,3.8C51.6,52.4,45,51.1,39.7,48.7z"/>
	</g>
</g>
</svg>
