<?xml version="1.0" encoding="utf-8"?>
<!-- Generator: Adobe Illustrator 19.1.0, SVG Export Plug-In . SVG Version: 6.00 Build 0)  -->
<svg version="1.1" id="Layer_1" xmlns="http://www.w3.org/2000/svg" xmlns:xlink="http://www.w3.org/1999/xlink" x="0px" y="0px"
	 viewBox="0 0 120 100" style="enable-background:new 0 0 120 100;" xml:space="preserve">
<style type="text/css">
	.st0{fill:#8F97A1;}
	.st1{fill-rule:evenodd;clip-rule:evenodd;fill:#8F97A1;}
</style>
<g>
	<path class="st0" d="M85.1,38.4c-0.7,0-1.2-0.6-1.2-1.2V25.2h-6.2v5c0,0.7-0.6,1.2-1.2,1.2s-1.2-0.6-1.2-1.2v-6.3
		c0-0.7,0.6-1.2,1.2-1.2h8.7c0.7,0,1.2,0.6,1.2,1.2v13.2C86.4,37.8,85.8,38.4,85.1,38.4z"/>
	<path class="st0" d="M83.5,86.2H65.8c-0.7,0-1.2-0.6-1.2-1.2V70.1h-9V85c0,0.7-0.6,1.2-1.2,1.2H36.5c-4.3,0-7.9-3.5-7.9-7.9V43.7
		c0-0.7,0.6-1.2,1.2-1.2s1.2,0.6,1.2,1.2v34.7c0,3,2.4,5.4,5.4,5.4H53V68.8c0-0.7,0.6-1.2,1.2-1.2h11.5c0.7,0,1.2,0.6,1.2,1.2v14.9
		h16.5c3,0,5.4-2.4,5.4-5.4V43.7c0-0.7,0.6-1.2,1.2-1.2s1.2,0.6,1.2,1.2v34.7C91.4,82.7,87.9,86.2,83.5,86.2z"/>
	<path class="st0" d="M99,52.2c-0.3,0-0.6-0.1-0.8-0.3L60,16.7L21.9,51.8c-0.5,0.5-1.3,0.4-1.8-0.1c-0.5-0.5-0.4-1.3,0.1-1.8
		l39-35.9c0.5-0.4,1.2-0.4,1.7,0l39,35.9c0.5,0.5,0.5,1.3,0.1,1.8C99.6,52,99.3,52.2,99,52.2z"/>
</g>
</svg>
