<?xml version="1.0" encoding="utf-8"?>
<!-- Generator: Adobe Illustrator 19.1.0, SVG Export Plug-In . SVG Version: 6.00 Build 0)  -->
<svg version="1.1" id="Layer_1" xmlns="http://www.w3.org/2000/svg" xmlns:xlink="http://www.w3.org/1999/xlink" x="0px" y="0px"
	 viewBox="0 0 120 100" style="enable-background:new 0 0 120 100;" xml:space="preserve">
<style type="text/css">
	.st0{fill:#8F97A1;}
	.st1{fill-rule:evenodd;clip-rule:evenodd;fill:#8F97A1;}
</style>
<g>
	<g>
		<path class="st0" d="M60,94.3c-0.4,0-0.9-0.1-1.3-0.2L37.1,87c-1.3-0.5-2.1-1.6-2.1-2.8V54.4c0-1.5,1.1-2.8,2.6-3.1
			c0.6-0.1,1.3-0.1,1.8,0.2L60,58.1l20.5-6.7c0,0,0.1,0,0.1,0c0.5-0.2,1.1-0.2,1.8-0.1c1.5,0.3,2.6,1.6,2.6,3.1v29.8
			c0,1.2-0.8,2.4-2.1,2.8c0,0,0,0,0,0l-21.7,7.1C60.9,94.3,60.4,94.3,60,94.3z M38.2,53.2c-0.1,0-0.2,0-0.3,0c-0.6,0.1-1,0.7-1,1.1
			v29.8c0,0.4,0.3,0.8,0.7,0.9l21.7,7.1c0.4,0.2,0.8,0.1,1.1,0l21.7-7.1c0.4-0.2,0.7-0.5,0.7-0.9V54.4c0-0.5-0.3-1-1-1.1
			c-0.3,0-0.5,0-0.8,0.1l-20.9,6.8c-0.2,0.1-0.5,0.1-0.7,0l-20.9-6.8C38.6,53.3,38.4,53.2,38.2,53.2z"/>
		<path class="st0" d="M60,94.3c-0.6,0-1-0.4-1-1V59.2c0-0.6,0.4-1,1-1s1,0.4,1,1v34.2C61,93.9,60.6,94.3,60,94.3z"/>
	</g>
	<path class="st0" d="M60,38.7c-9.1,0-16.5-7.4-16.5-16.5S50.9,5.7,60,5.7c9.1,0,16.5,7.4,16.5,16.5S69.1,38.7,60,38.7z M60,7.7
		c-8,0-14.5,6.5-14.5,14.5S52,36.7,60,36.7s14.5-6.5,14.5-14.5S68,7.7,60,7.7z"/>
	<path class="st0" d="M99.5,81.8H85.9c-0.6,0-1-0.4-1-1s0.4-1,1-1h12.5c-1.6-14.1-4.5-36.2-19.9-36.2H41.6
		c-15.4,0-18.3,22.2-19.9,36.2h12.5c0.6,0,1,0.4,1,1s-0.4,1-1,1H20.5c-0.3,0-0.6-0.1-0.7-0.3c-0.2-0.2-0.3-0.5-0.2-0.8
		c1.7-14.6,4.4-39.1,22-39.1h36.8c17.6,0,20.4,24.5,22,39.1c0,0.3-0.1,0.6-0.2,0.8C100,81.7,99.8,81.8,99.5,81.8z"/>
</g>
</svg>
