<?xml version="1.0" encoding="utf-8"?>
<!-- Generator: Adobe Illustrator 19.1.0, SVG Export Plug-In . SVG Version: 6.00 Build 0)  -->
<svg version="1.1" id="Layer_1" xmlns="http://www.w3.org/2000/svg" xmlns:xlink="http://www.w3.org/1999/xlink" x="0px" y="0px"
	 viewBox="0 0 120 100" style="enable-background:new 0 0 120 100;" xml:space="preserve">
<style type="text/css">
	.st0{fill:#8F97A1;}
	.st1{fill-rule:evenodd;clip-rule:evenodd;fill:#8F97A1;}
</style>
<g>
	<path class="st0" d="M51.8,61.6c-5.9,0-10.8-4.8-10.8-10.8S45.8,40,51.8,40s10.8,4.8,10.8,10.8S57.7,61.6,51.8,61.6z M51.8,42
		C46.9,42,43,46,43,50.8c0,4.8,3.9,8.8,8.8,8.8c4.8,0,8.8-3.9,8.8-8.8C60.6,46,56.6,42,51.8,42z"/>
	<path class="st0" d="M72.1,45.8c-0.1,0-0.2,0-0.3-0.1c-0.4-0.1-0.7-0.5-0.7-0.9V36H45.5c-3.7,0-6.7-3-6.7-6.7V15.7
		c0-3.7,3-6.7,6.7-6.7h40.6c3.7,0,6.7,3,6.7,6.7v13.5c0,3.7-3,6.7-6.7,6.7h-6l-7.2,9.4C72.7,45.7,72.4,45.8,72.1,45.8z M45.5,11
		c-2.6,0-4.7,2.1-4.7,4.7v13.5c0,2.6,2.1,4.7,4.7,4.7h26.6c0.6,0,1,0.4,1,1v6.9l5.7-7.5c0.2-0.2,0.5-0.4,0.8-0.4h6.4
		c2.6,0,4.7-2.1,4.7-4.7V15.7c0-2.6-2.1-4.7-4.7-4.7H45.5z"/>
	<path class="st0" d="M75.4,91h-8.2c-0.5,0-0.8-0.3-1-0.7l-0.6-2.4c0,0.6,0,1.3,0,2.1c0,0.6-0.4,1-1,1H39c-0.6,0-1-0.4-1-1
		c0-0.8,0-1.5,0-2.1l-0.6,2.4c-0.1,0.4-0.5,0.7-1,0.7h-8.2c-0.3,0-0.6-0.1-0.7-0.3c-0.2-0.2-0.3-0.5-0.3-0.8
		c2-20.4,10-27.6,16.2-27.6h16.7c6.2,0,14.2,7.2,16.2,27.6c0,0.3-0.1,0.6-0.3,0.8C75.9,90.9,75.6,91,75.4,91z M68,89h6.3
		c-1.1-9.7-5.3-24.7-14.1-24.7H43.4c-8.8,0-12.9,15.1-14.1,24.7h6.3l2.4-8.9c0.1-0.5,0.6-0.8,1.1-0.7c0.5,0.1,0.9,0.5,0.9,1v1.5
		c0,1.8,0,2.9,0,7.1h23.6c0-4.3,0-5.3,0-7.1v-1.5c0-0.5,0.4-0.9,0.9-1c0.5-0.1,1,0.2,1.1,0.7L68,89z"/>
</g>
</svg>
