<?xml version="1.0" encoding="utf-8"?>
<!-- Generator: Adobe Illustrator 19.1.0, SVG Export Plug-In . SVG Version: 6.00 Build 0)  -->
<svg version="1.1" id="Layer_1" xmlns="http://www.w3.org/2000/svg" xmlns:xlink="http://www.w3.org/1999/xlink" x="0px" y="0px"
	 viewBox="0 0 120 100" style="enable-background:new 0 0 120 100;" xml:space="preserve">
<style type="text/css">
	.st0{fill:#8F97A1;}
	.st1{fill-rule:evenodd;clip-rule:evenodd;fill:#8F97A1;}
</style>
<g>
	<g>
		<path class="st0" d="M97.3,40.4C97.3,40.4,97.3,40.4,97.3,40.4l-6.9,0c-0.6,0-1-0.4-1-1c0-0.6,0.4-1,1-1c0,0,0,0,0,0l6.9,0
			c0.6,0,1,0.4,1,1C98.3,39.9,97.8,40.4,97.3,40.4z"/>
		<path class="st0" d="M93.8,91C93.8,91,93.8,91,93.8,91c-0.3,0-0.6-0.2-0.8-0.4l-3.5-4.8c-0.1-0.2-0.2-0.4-0.2-0.6L89.4,35
			c0-1.9,1.5-3.4,3.4-3.4c0,0,0,0,0,0l2.1,0c1.9,0,3.4,1.5,3.4,3.4l-0.1,50.2c0,0.2-0.1,0.4-0.2,0.6l-3.5,4.8
			C94.4,90.8,94.1,91,93.8,91z M91.3,84.9l2.5,3.4l2.5-3.4L96.3,35c0-0.8-0.6-1.4-1.4-1.4l-2.1,0c0,0,0,0,0,0
			c-0.8,0-1.4,0.6-1.4,1.4v0L91.3,84.9z"/>
		<path class="st0" d="M97.3,86.2C97.3,86.2,97.3,86.2,97.3,86.2l-7,0c-0.6,0-1-0.4-1-1c0-0.6,0.4-1,1-1c0,0,0,0,0,0l7,0
			c0.6,0,1,0.4,1,1C98.3,85.7,97.9,86.2,97.3,86.2z"/>
	</g>
	<path class="st0" d="M77.9,91H27.8c-3.4,0-6.1-2.7-6.1-6.1V15.1c0-3.4,2.7-6.1,6.1-6.1h50.2c3.4,0,6.1,2.7,6.1,6.1v69.8
		C84,88.3,81.3,91,77.9,91z M27.8,11c-2.2,0-4.1,1.8-4.1,4.1v69.8c0,2.2,1.8,4.1,4.1,4.1h50.2c2.2,0,4.1-1.8,4.1-4.1V15.1
		c0-2.2-1.8-4.1-4.1-4.1H27.8z"/>
	<path class="st0" d="M72.8,26.5H33.2c-0.6,0-1-0.4-1-1s0.4-1,1-1h39.5c0.6,0,1,0.4,1,1S73.3,26.5,72.8,26.5z"/>
	<g>
		<path class="st0" d="M35.3,35c-1.4,0-2.5-1.1-2.5-2.5s1.1-2.5,2.5-2.5s2.5,1.1,2.5,2.5S36.6,35,35.3,35z M35.3,32.1
			c-0.3,0-0.5,0.2-0.5,0.5S35,33,35.3,33c0.3,0,0.5-0.2,0.5-0.5S35.5,32.1,35.3,32.1z"/>
		<path class="st0" d="M47.4,35c-1.4,0-2.5-1.1-2.5-2.5s1.1-2.5,2.5-2.5s2.5,1.1,2.5,2.5S48.7,35,47.4,35z M47.4,32.1
			c-0.3,0-0.5,0.2-0.5,0.5s0.2,0.5,0.5,0.5s0.5-0.2,0.5-0.5S47.6,32.1,47.4,32.1z"/>
		<path class="st0" d="M59.4,35c-1.4,0-2.5-1.1-2.5-2.5s1.1-2.5,2.5-2.5s2.5,1.1,2.5,2.5S60.8,35,59.4,35z M59.4,32.1
			c-0.3,0-0.5,0.2-0.5,0.5s0.2,0.5,0.5,0.5c0.3,0,0.5-0.2,0.5-0.5S59.7,32.1,59.4,32.1z"/>
	</g>
	<path class="st0" d="M72.8,46.8H33.2c-0.6,0-1-0.4-1-1s0.4-1,1-1h39.5c0.6,0,1,0.4,1,1S73.3,46.8,72.8,46.8z"/>
	<g>
		<path class="st0" d="M35.3,56.5c-1.4,0-2.5-1.1-2.5-2.5s1.1-2.5,2.5-2.5s2.5,1.1,2.5,2.5S36.6,56.5,35.3,56.5z M35.3,53.6
			c-0.3,0-0.5,0.2-0.5,0.5c0,0.3,0.2,0.5,0.5,0.5c0.3,0,0.5-0.2,0.5-0.5C35.8,53.8,35.5,53.6,35.3,53.6z"/>
		<path class="st0" d="M47.4,56.5c-1.4,0-2.5-1.1-2.5-2.5s1.1-2.5,2.5-2.5s2.5,1.1,2.5,2.5S48.7,56.5,47.4,56.5z M47.4,53.6
			c-0.3,0-0.5,0.2-0.5,0.5c0,0.3,0.2,0.5,0.5,0.5s0.5-0.2,0.5-0.5C47.8,53.8,47.6,53.6,47.4,53.6z"/>
		<path class="st0" d="M59.4,56.5c-1.4,0-2.5-1.1-2.5-2.5s1.1-2.5,2.5-2.5s2.5,1.1,2.5,2.5S60.8,56.5,59.4,56.5z M59.4,53.6
			c-0.3,0-0.5,0.2-0.5,0.5c0,0.3,0.2,0.5,0.5,0.5c0.3,0,0.5-0.2,0.5-0.5C59.9,53.8,59.7,53.6,59.4,53.6z"/>
	</g>
	<path class="st0" d="M72.8,67.1H33.2c-0.6,0-1-0.4-1-1s0.4-1,1-1h39.5c0.6,0,1,0.4,1,1S73.3,67.1,72.8,67.1z"/>
	<g>
		<path class="st0" d="M35.3,78c-1.4,0-2.5-1.1-2.5-2.5s1.1-2.5,2.5-2.5s2.5,1.1,2.5,2.5S36.6,78,35.3,78z M35.3,75
			c-0.3,0-0.5,0.2-0.5,0.5S35,76,35.3,76c0.3,0,0.5-0.2,0.5-0.5S35.5,75,35.3,75z"/>
		<path class="st0" d="M47.4,78c-1.4,0-2.5-1.1-2.5-2.5S46,73,47.4,73s2.5,1.1,2.5,2.5S48.7,78,47.4,78z M47.4,75
			c-0.3,0-0.5,0.2-0.5,0.5s0.2,0.5,0.5,0.5s0.5-0.2,0.5-0.5S47.6,75,47.4,75z"/>
		<path class="st0" d="M59.4,78c-1.4,0-2.5-1.1-2.5-2.5s1.1-2.5,2.5-2.5s2.5,1.1,2.5,2.5S60.8,78,59.4,78z M59.4,75
			c-0.3,0-0.5,0.2-0.5,0.5s0.2,0.5,0.5,0.5c0.3,0,0.5-0.2,0.5-0.5S59.7,75,59.4,75z"/>
	</g>
</g>
</svg>
