<?xml version="1.0" encoding="utf-8"?>
<!-- Generator: Adobe Illustrator 19.1.0, SVG Export Plug-In . SVG Version: 6.00 Build 0)  -->
<svg version="1.1" id="Layer_1" xmlns="http://www.w3.org/2000/svg" xmlns:xlink="http://www.w3.org/1999/xlink" x="0px" y="0px"
	 viewBox="0 0 120 100" style="enable-background:new 0 0 120 100;" xml:space="preserve">
<style type="text/css">
	.st0{fill:#8F97A1;}
	.st1{fill-rule:evenodd;clip-rule:evenodd;fill:#8F97A1;}
</style>
<g>
	<path class="st0" d="M51,46.3H25.5c-3.3,0-5.9-2.7-5.9-5.9V14.9c0-3.3,2.7-5.9,5.9-5.9H51c3.3,0,5.9,2.7,5.9,5.9v25.5
		C56.9,43.7,54.2,46.3,51,46.3z M25.5,11c-2.2,0-3.9,1.8-3.9,3.9v25.5c0,2.2,1.8,3.9,3.9,3.9H51c2.2,0,3.9-1.8,3.9-3.9V14.9
		c0-2.2-1.8-3.9-3.9-3.9H25.5z"/>
	<g>
		<path class="st0" d="M38.2,39.2c-0.6,0-1-0.4-1-1v-21c0-0.6,0.4-1,1-1s1,0.4,1,1v21C39.2,38.7,38.8,39.2,38.2,39.2z"/>
		<path class="st0" d="M48.7,28.7h-21c-0.6,0-1-0.4-1-1s0.4-1,1-1h21c0.6,0,1,0.4,1,1S49.3,28.7,48.7,28.7z"/>
	</g>
	<path class="st0" d="M94.5,46.3H69c-3.3,0-5.9-2.7-5.9-5.9V14.9c0-3.3,2.7-5.9,5.9-5.9h25.5c3.3,0,5.9,2.7,5.9,5.9v25.5
		C100.4,43.7,97.8,46.3,94.5,46.3z M69,11c-2.2,0-3.9,1.8-3.9,3.9v25.5c0,2.2,1.8,3.9,3.9,3.9h25.5c2.2,0,3.9-1.8,3.9-3.9V14.9
		c0-2.2-1.8-3.9-3.9-3.9H69z"/>
	<g>
		<path class="st0" d="M92.3,28.7h-21c-0.6,0-1-0.4-1-1s0.4-1,1-1h21c0.6,0,1,0.4,1,1S92.8,28.7,92.3,28.7z"/>
	</g>
	<path class="st0" d="M51,91H25.5c-3.3,0-5.9-2.7-5.9-5.9V59.6c0-3.3,2.7-5.9,5.9-5.9H51c3.3,0,5.9,2.7,5.9,5.9v25.5
		C56.9,88.3,54.2,91,51,91z M25.5,55.7c-2.2,0-3.9,1.8-3.9,3.9v25.5c0,2.2,1.8,3.9,3.9,3.9H51c2.2,0,3.9-1.8,3.9-3.9V59.6
		c0-2.2-1.8-3.9-3.9-3.9H25.5z"/>
	<g>
		<path class="st0" d="M45.7,80.8c-0.3,0-0.5-0.1-0.7-0.3L30.1,65.6c-0.4-0.4-0.4-1,0-1.4s1-0.4,1.4,0l14.9,14.9
			c0.4,0.4,0.4,1,0,1.4C46.2,80.7,45.9,80.8,45.7,80.8z"/>
		<path class="st0" d="M30.8,80.8c-0.3,0-0.5-0.1-0.7-0.3c-0.4-0.4-0.4-1,0-1.4L45,64.2c0.4-0.4,1-0.4,1.4,0s0.4,1,0,1.4L31.5,80.5
			C31.3,80.7,31.1,80.8,30.8,80.8z"/>
	</g>
	<path class="st0" d="M94.5,91H69c-3.3,0-5.9-2.7-5.9-5.9V59.6c0-3.3,2.7-5.9,5.9-5.9h25.5c3.3,0,5.9,2.7,5.9,5.9v25.5
		C100.4,88.3,97.8,91,94.5,91z M69,55.7c-2.2,0-3.9,1.8-3.9,3.9v25.5c0,2.2,1.8,3.9,3.9,3.9h25.5c2.2,0,3.9-1.8,3.9-3.9V59.6
		c0-2.2-1.8-3.9-3.9-3.9H69z"/>
	<g>
		<g>
			<path class="st0" d="M92.3,73.3h-21c-0.6,0-1-0.4-1-1s0.4-1,1-1h21c0.6,0,1,0.4,1,1S92.8,73.3,92.3,73.3z"/>
		</g>
		<path class="st0" d="M81.8,68.5c-1.7,0-3-1.3-3-3s1.3-3,3-3c1.7,0,3,1.3,3,3S83.5,68.5,81.8,68.5z M81.8,64.5c-0.6,0-1,0.4-1,1
			s0.4,1,1,1s1-0.4,1-1S82.4,64.5,81.8,64.5z"/>
		<path class="st0" d="M81.8,82.2c-1.7,0-3-1.3-3-3c0-1.7,1.3-3,3-3c1.7,0,3,1.3,3,3C84.8,80.8,83.5,82.2,81.8,82.2z M81.8,78.2
			c-0.6,0-1,0.4-1,1c0,0.5,0.4,1,1,1s1-0.4,1-1C82.8,78.6,82.4,78.2,81.8,78.2z"/>
	</g>
</g>
</svg>
