<?xml version="1.0" encoding="utf-8"?>
<!-- Generator: Adobe Illustrator 19.1.0, SVG Export Plug-In . SVG Version: 6.00 Build 0)  -->
<svg version="1.1" id="Layer_1" xmlns="http://www.w3.org/2000/svg" xmlns:xlink="http://www.w3.org/1999/xlink" x="0px" y="0px"
	 viewBox="0 0 120 100" style="enable-background:new 0 0 120 100;" xml:space="preserve">
<style type="text/css">
	.st0{fill:#8F97A1;}
	.st1{fill-rule:evenodd;clip-rule:evenodd;fill:#8F97A1;}
</style>
<g>
	<path class="st0" d="M60,76.6c-0.6,0-1-0.4-1-1V19.7c0-0.6,0.4-1,1-1s1,0.4,1,1v55.9C61,76.2,60.6,76.6,60,76.6z"/>
	<g>
		<path class="st0" d="M47.9,36.1H27.3c-0.6,0-1-0.4-1-1s0.4-1,1-1h20.6c0.6,0,1,0.4,1,1S48.5,36.1,47.9,36.1z"/>
		<path class="st0" d="M92.7,36.1H72.1c-0.6,0-1-0.4-1-1s0.4-1,1-1h20.6c0.6,0,1,0.4,1,1S93.2,36.1,92.7,36.1z"/>
		<path class="st0" d="M47.9,48.6H27.3c-0.6,0-1-0.4-1-1s0.4-1,1-1h20.6c0.6,0,1,0.4,1,1S48.5,48.6,47.9,48.6z"/>
		<path class="st0" d="M92.7,48.6H72.1c-0.6,0-1-0.4-1-1s0.4-1,1-1h20.6c0.6,0,1,0.4,1,1S93.2,48.6,92.7,48.6z"/>
		<path class="st0" d="M47.9,61.2H27.3c-0.6,0-1-0.4-1-1s0.4-1,1-1h20.6c0.6,0,1,0.4,1,1S48.5,61.2,47.9,61.2z"/>
		<path class="st0" d="M92.7,61.2H72.1c-0.6,0-1-0.4-1-1s0.4-1,1-1h20.6c0.6,0,1,0.4,1,1S93.2,61.2,92.7,61.2z"/>
	</g>
	<path class="st0" d="M99.2,81.3H20.8c-2.6,0-4.7-2.1-4.7-4.7V18.7c0-2.6,2.1-4.7,4.7-4.7h78.3c2.6,0,4.7,2.1,4.7,4.7v57.8
		C103.9,79.2,101.8,81.3,99.2,81.3z M20.8,16c-1.5,0-2.7,1.2-2.7,2.7v57.8c0,1.5,1.2,2.7,2.7,2.7h78.3c1.5,0,2.7-1.2,2.7-2.7V18.7
		c0-1.5-1.2-2.7-2.7-2.7H20.8z"/>
	<g>
		<path class="st0" d="M104.1,86H15.9c-2.3,0-4.1-1.9-4.1-4.1v-59c0-2.3,1.8-4.1,4.1-4.1c0.6,0,1,0.4,1,1s-0.4,1-1,1
			c-1.2,0-2.1,1-2.1,2.1v59c0,1.2,1,2.1,2.1,2.1h88.2c1.2,0,2.1-1,2.1-2.1v-59c0-1.2-1-2.1-2.1-2.1c-0.6,0-1-0.4-1-1s0.4-1,1-1
			c2.4,0,4.2,1.9,4.2,4.1v59C108.2,84.1,106.4,86,104.1,86z"/>
	</g>
</g>
</svg>
