<?xml version="1.0" encoding="utf-8"?>
<!-- Generator: Adobe Illustrator 19.1.0, SVG Export Plug-In . SVG Version: 6.00 Build 0)  -->
<svg version="1.1" id="Layer_1" xmlns="http://www.w3.org/2000/svg" xmlns:xlink="http://www.w3.org/1999/xlink" x="0px" y="0px"
	 viewBox="0 0 120 100" style="enable-background:new 0 0 120 100;" xml:space="preserve">
<style type="text/css">
	.st0{fill:#8F97A1;}
	.st1{fill-rule:evenodd;clip-rule:evenodd;fill:#8F97A1;}
</style>
<g>
	<g>
		<path class="st0" d="M17.2,32.7c-3.5,0-6.3-2.8-6.3-6.3c0-3.5,2.8-6.3,6.3-6.3s6.3,2.8,6.3,6.3C23.5,29.8,20.7,32.7,17.2,32.7z
			 M17.2,22c-2.4,0-4.3,1.9-4.3,4.3s1.9,4.3,4.3,4.3s4.3-1.9,4.3-4.3S19.6,22,17.2,22z"/>
		<path class="st0" d="M21.4,80h-1c-1.3,0-2.5-0.7-3.2-1.8C16.5,79.3,15.4,80,14,80h-1c-2.1,0-3.7-1.7-3.7-3.7L9.2,50.2
			c0-0.1,0-0.3,0-0.4l-0.5,1.7c0,0.1-0.1,0.2-0.1,0.3c-1,1.5-3,2-4.5,1L4,52.7c-1.6-1-0.2-8.9,0.6-11.7c1.7-5.9,4.5-9,8.1-9h9.1
			c3.5,0,6.3,3.1,8.1,9c0.8,2.8,2.3,10.6,0.6,11.7l-0.2,0.1c-1.5,1-3.5,0.5-4.5-1c-0.1-0.1-0.1-0.2-0.1-0.3l-0.5-1.7
			c0,0.1,0,0.3,0,0.4l-0.1,26.1C25.1,78.3,23.4,80,21.4,80z M16.7,56.8h0.9c0.6,0,1,0.4,1,1v18.5c0,1,0.8,1.7,1.7,1.7h1
			c1,0,1.7-0.8,1.7-1.7l0.1-26.1c0-5.2,0-5.8,0-7.1v-0.8c0-0.5,0.4-0.9,0.9-1c0.5-0.1,1,0.2,1.1,0.7l2.4,8.8
			c0.4,0.5,1.1,0.6,1.6,0.3c0.4-1.7-0.5-10.3-3.5-14.7c-1.1-1.6-2.4-2.5-3.9-2.5h-9.1c-1.4,0-2.7,0.8-3.9,2.5
			c-3.1,4.4-3.9,13-3.5,14.7c0.5,0.3,1.2,0.2,1.6-0.3L9.2,42c0.1-0.5,0.6-0.8,1.1-0.7c0.5,0.1,0.9,0.5,0.9,1v0.8c0,1.3,0,1.9,0,7.1
			l0.1,26.1c0,1,0.8,1.7,1.7,1.7h1c1,0,1.7-0.8,1.7-1.7V57.8C15.7,57.2,16.2,56.8,16.7,56.8z"/>
	</g>
	<g>
		<path class="st0" d="M102.8,32.7c-0.1,0-0.3,0-0.4,0l0,0c-3.2-0.2-5.7-2.7-5.9-5.9c-0.1-1.8,0.6-3.6,1.8-4.9
			c1.3-1.3,3.1-2,4.9-1.8c3.2,0.2,5.7,2.7,5.9,5.9c0.1,1.8-0.6,3.6-1.8,4.9C106.1,32,104.5,32.7,102.8,32.7z M102.5,30.7
			c1.2,0.1,2.5-0.4,3.4-1.3s1.3-2.1,1.3-3.4c-0.1-2.2-1.9-3.9-4-4c-1.2-0.1-2.5,0.4-3.4,1.3c-0.9,0.9-1.3,2.1-1.3,3.4
			C98.6,28.8,100.3,30.5,102.5,30.7L102.5,30.7z"/>
		<path class="st0" d="M107,80h-1c-1.3,0-2.5-0.7-3.2-1.8c-0.7,1.1-1.8,1.8-3.2,1.8h-1c-2.1,0-3.7-1.7-3.7-3.7l0-10.8h-3.4
			c-0.3,0-0.6-0.1-0.8-0.4c-0.2-0.2-0.3-0.5-0.2-0.8c0.6-3.1,1.5-7.4,2.3-11.3c-1,0.4-2.1,0.4-3-0.2l-0.2-0.1
			c-1.6-1-0.2-8.9,0.6-11.7c1.7-5.9,4.5-9,8.1-9h9.1c3.5,0,6.3,3.1,8.1,9c0.8,2.8,2.3,10.6,0.6,11.7l-0.2,0.1
			c-0.9,0.6-2.1,0.7-3,0.2c0.8,3.9,1.7,8.2,2.3,11.3c0.1,0.3,0,0.6-0.2,0.8c-0.2,0.2-0.5,0.4-0.8,0.4h-3.4l0,10.8
			C110.7,78.3,109,80,107,80z M102.4,63.5h0.9c0.6,0,1,0.4,1,1v11.8c0,1,0.8,1.7,1.7,1.7h1c1,0,1.7-0.8,1.7-1.7l0-11.8
			c0-0.6,0.4-1,1-1h3.2c-4.1-20.2-4.1-20.3-4.1-20.4v-0.8c0-0.5,0.4-0.9,0.9-1c0.5-0.1,1,0.2,1.1,0.7l2.4,8.8
			c0.4,0.5,1.1,0.6,1.6,0.3c0.4-1.7-0.5-10.3-3.5-14.7c-1.1-1.6-2.4-2.5-3.9-2.5h-9.1c-1.4,0-2.7,0.8-3.9,2.5
			c-3.1,4.4-3.9,13-3.5,14.7c0.5,0.3,1.2,0.2,1.6-0.3l2.4-8.8c0.1-0.5,0.6-0.8,1.1-0.7c0.5,0.1,0.9,0.5,0.9,1v0.8
			c0,0.1,0,0.2-4.1,20.4h3.2c0.6,0,1,0.4,1,1l0,11.8c0,1,0.8,1.7,1.7,1.7h1c1,0,1.7-0.8,1.7-1.7V64.5
			C101.4,63.9,101.8,63.5,102.4,63.5z"/>
	</g>
	<g>
		<path class="st0" d="M74.3,37c-3.2,0-5.8-2.6-5.8-5.8c0-3.2,2.6-5.8,5.8-5.8s5.8,2.6,5.8,5.8C80.1,34.4,77.5,37,74.3,37z
			 M74.3,27.3c-2.1,0-3.8,1.7-3.8,3.8s1.7,3.8,3.8,3.8s3.8-1.7,3.8-3.8S76.4,27.3,74.3,27.3z"/>
		<path class="st0" d="M78.1,80h-0.9c-1.2,0-2.3-0.6-2.9-1.5c-0.6,0.9-1.7,1.5-2.9,1.5h-0.9c-1.9,0-3.5-1.6-3.5-3.5l-0.1-23.2
			c0-0.1,0-0.1,0-0.2l-0.2,0.9c0,0.1-0.1,0.2-0.1,0.3c-0.9,1.4-2.8,1.8-4.2,0.9l-0.2-0.1c-1.5-1-0.2-8.1,0.5-10.7
			c1.6-5.4,4.1-8.3,7.4-8.3h8.3c3.3,0,5.8,2.9,7.4,8.3c0.8,2.7,2.1,9.7,0.5,10.7l-0.2,0.1c-0.7,0.4-1.5,0.6-2.3,0.4
			c-0.8-0.2-1.5-0.6-1.9-1.3c-0.1-0.1-0.1-0.2-0.1-0.3l-0.2-0.9l-0.1,23.4C81.5,78.4,80,80,78.1,80z M73.9,58.7h0.7
			c0.6,0,1.1,0.4,1.1,1v16.8c0,0.8,0.7,1.5,1.5,1.5h0.9c0.8,0,1.5-0.7,1.5-1.5l0.1-24.2c0-4.2,0-4.7,0-5.9v-0.8c0-0.5,0.4-0.9,0.9-1
			c0.5-0.1,1,0.2,1.1,0.7l2.1,8c0.1,0.2,0.3,0.3,0.6,0.4c0.2,0.1,0.5,0,0.7-0.1c0.3-1.6-0.4-9.4-3.2-13.3c-1-1.4-2.1-2.1-3.4-2.1
			h-8.3c-1.3,0-2.4,0.7-3.4,2.1c-2.8,4-3.6,11.7-3.2,13.3c0.4,0.2,1,0.1,1.3-0.3l2.1-8c0.1-0.5,0.6-0.8,1.1-0.7
			c0.5,0.1,0.9,0.5,0.9,1v0.8c0,1.2,0,1.8,0,6.9L69,76.5c0,0.8,0.7,1.5,1.5,1.5h0.9c0.8,0,1.5-0.7,1.5-1.5V59.7
			C72.9,59.2,73.3,58.7,73.9,58.7z"/>
	</g>
	<g>
		<path class="st0" d="M45.7,37c-0.1,0-0.2,0-0.4,0c-2.9-0.2-5.3-2.5-5.5-5.5c-0.1-1.7,0.5-3.3,1.7-4.5c1.2-1.2,2.8-1.8,4.5-1.7
			c2.9,0.2,5.3,2.5,5.5,5.5c0.1,1.7-0.5,3.3-1.7,4.5C48.8,36.4,47.3,37,45.7,37z M45.7,27.3c-1,0-2,0.4-2.7,1.1
			c-0.8,0.8-1.2,1.9-1.1,3c0.1,1.9,1.7,3.5,3.6,3.6l0,0c1.1,0.1,2.2-0.3,3-1.1c0.8-0.8,1.2-1.9,1.1-3c-0.1-1.9-1.7-3.5-3.6-3.6
			C45.9,27.3,45.8,27.3,45.7,27.3z"/>
		<path class="st0" d="M49.5,80h-0.9c-1.2,0-2.3-0.6-2.9-1.5C45.1,79.4,44,80,42.8,80h-0.9c-1.9,0-3.5-1.6-3.5-3.5l0-9.7h-3
			c-0.3,0-0.6-0.1-0.8-0.4c-0.2-0.2-0.3-0.5-0.2-0.8c0.6-2.8,1.3-6.6,2-10.1c-0.1,0-0.3,0.1-0.4,0.1c-0.8,0.2-1.6,0-2.3-0.4
			l-0.2-0.1c-1.5-1-0.2-8.1,0.5-10.7c1.6-5.4,4.1-8.3,7.4-8.3h8.3c3.3,0,5.8,2.9,7.4,8.3c0.8,2.7,2.1,9.7,0.5,10.7l-0.2,0.1
			c-0.8,0.5-1.8,0.6-2.7,0.3c0.7,3.5,1.5,7.3,2,10.1c0.1,0.3,0,0.6-0.2,0.8c-0.2,0.2-0.5,0.4-0.8,0.4h-3l0,9.7
			C53,78.4,51.4,80,49.5,80z M45.3,64.8h0.8c0.6,0,1,0.4,1,1v10.7c0,0.8,0.7,1.5,1.5,1.5h0.9c0.8,0,1.5-0.7,1.5-1.5l0-10.7
			c0-0.6,0.4-1,1-1h2.8c-3.7-18.2-3.7-18.3-3.7-18.4v-0.8c0-0.5,0.4-0.9,0.9-1c0.5-0.1,1,0.2,1.1,0.7l2.1,8c0.3,0.4,0.9,0.5,1.3,0.3
			c0.3-1.6-0.4-9.4-3.2-13.3c-1-1.4-2.1-2.1-3.4-2.1h-8.3c-1.3,0-2.4,0.7-3.4,2.1c-2.8,4-3.6,11.7-3.2,13.3c0.2,0.1,0.5,0.1,0.7,0.1
			c0.2-0.1,0.4-0.2,0.6-0.4l2.1-8c0.1-0.5,0.6-0.8,1.1-0.7c0.5,0.1,0.9,0.5,0.9,1v0.8c0,0.1,0,0.2-3.7,18.4h2.8c0.6,0,1,0.4,1,1
			l0,10.7c0,0.8,0.7,1.5,1.5,1.5h0.9c0.8,0,1.5-0.7,1.5-1.5V65.8C44.3,65.3,44.8,64.8,45.3,64.8z"/>
	</g>
</g>
</svg>
