<?xml version="1.0" encoding="utf-8"?>
<!-- Generator: Adobe Illustrator 19.1.0, SVG Export Plug-In . SVG Version: 6.00 Build 0)  -->
<svg version="1.1" id="Layer_1" xmlns="http://www.w3.org/2000/svg" xmlns:xlink="http://www.w3.org/1999/xlink" x="0px" y="0px"
	 viewBox="0 0 120 100" style="enable-background:new 0 0 120 100;" xml:space="preserve">
<style type="text/css">
	.st0{fill:#8F97A1;}
	.st1{fill-rule:evenodd;clip-rule:evenodd;fill:#8F97A1;}
</style>
<g>
	<path class="st0" d="M106.3,83.5H13.7c-1.4,0-2.5-1.3-2.5-2.9c0-0.1,0-0.3,0.1-0.4l2.3-5.2c0.2-0.4,0.5-0.6,0.9-0.6h91
		c0.4,0,0.8,0.2,0.9,0.6l2.3,5.2c0.1,0.1,0.1,0.3,0.1,0.4C108.8,82.2,107.7,83.5,106.3,83.5z M13.2,80.8c0.1,0.4,0.3,0.7,0.5,0.7
		h92.5c0.2,0,0.5-0.3,0.5-0.7l-2-4.4H15.2L13.2,80.8z"/>
	<path class="st0" d="M105.5,75c-0.6,0-1-0.4-1-1V20.9c0-1.3-1.1-2.4-2.5-2.4H18.1c-1.4,0-2.5,1.1-2.5,2.4V74c0,0.6-0.4,1-1,1
		s-1-0.4-1-1V20.9c0-2.4,2-4.4,4.5-4.4h83.9c2.5,0,4.5,2,4.5,4.4V74C106.5,74.5,106,75,105.5,75z"/>
	<path class="st0" d="M100.4,74.5c-0.6,0-1-0.4-1-1V25.3c0-1.1-1-2.1-2.1-2.1H22.7c-1.2,0-2.1,0.9-2.1,2.1v48.1c0,0.6-0.4,1-1,1
		s-1-0.4-1-1V25.3c0-2.2,1.9-4.1,4.1-4.1h74.5c2.3,0,4.1,1.8,4.1,4.1v48.1C101.4,74,100.9,74.5,100.4,74.5z"/>
	<rect x="56.3" y="78.2" class="st0" width="7.5" height="1.5"/>
</g>
</svg>
