<?xml version="1.0" encoding="utf-8"?>
<!-- Generator: Adobe Illustrator 19.1.0, SVG Export Plug-In . SVG Version: 6.00 Build 0)  -->
<svg version="1.1" id="Layer_1" xmlns="http://www.w3.org/2000/svg" xmlns:xlink="http://www.w3.org/1999/xlink" x="0px" y="0px"
	 viewBox="0 0 120 100" style="enable-background:new 0 0 120 100;" xml:space="preserve">
<style type="text/css">
	.st0{fill:#8F97A1;}
	.st1{fill-rule:evenodd;clip-rule:evenodd;fill:#8F97A1;}
</style>
<g>
	<g>
		<path class="st0" d="M19,31.9H6.1c-0.6,0-1-0.4-1-1v-8.4c0-0.6,0.4-1,1-1H19c0.6,0,1,0.4,1,1v8.4C20,31.4,19.5,31.9,19,31.9z
			 M7.1,29.9H18v-6.4H7.1V29.9z"/>
		<path class="st0" d="M6.1,78.3c-0.6,0-1-0.4-1-1V30.9c0-0.6,0.4-1,1-1s1,0.4,1,1v46.4C7.1,77.8,6.7,78.3,6.1,78.3z"/>
	</g>
	<path class="st0" d="M90.3,38.9H38.9c-0.5,0-0.9-0.3-1-0.8c-0.1-0.4,0.1-0.9,0.5-1.1l25.7-14c0.3-0.2,0.7-0.2,1,0l25.7,14
		c0.4,0.2,0.6,0.7,0.5,1.1C91.1,38.6,90.7,38.9,90.3,38.9z M42.8,36.9h43.5L64.6,25L42.8,36.9z"/>
	<path class="st0" d="M89.9,78.3H39.2c-0.6,0-1-0.4-1-1V41.1c0-0.6,0.4-1,1-1h50.7c0.6,0,1,0.4,1,1v36.1
		C90.9,77.8,90.5,78.3,89.9,78.3z M40.2,76.3h48.7V42.1H40.2V76.3z"/>
	<path class="st0" d="M52.8,67.8H46c-0.6,0-1-0.4-1-1v-7.2c0-0.6,0.4-1,1-1h6.8c0.6,0,1,0.4,1,1v7.2C53.8,67.4,53.3,67.8,52.8,67.8z
		 M47,65.8h4.8v-5.2H47V65.8z"/>
	<path class="st0" d="M82.9,67.8h-6.8c-0.6,0-1-0.4-1-1v-7.2c0-0.6,0.4-1,1-1h6.8c0.6,0,1,0.4,1,1v7.2
		C83.9,67.4,83.4,67.8,82.9,67.8z M77.1,65.8h4.8v-5.2h-4.8V65.8z"/>
	<path class="st0" d="M52.8,55.6H46c-0.6,0-1-0.4-1-1v-7.2c0-0.6,0.4-1,1-1h6.8c0.6,0,1,0.4,1,1v7.2C53.8,55.2,53.3,55.6,52.8,55.6z
		 M47,53.6h4.8v-5.2H47V53.6z"/>
	<path class="st0" d="M68,52h-6.8c-0.6,0-1-0.4-1-1v-3.6c0-0.6,0.4-1,1-1H68c0.6,0,1,0.4,1,1V51C69,51.6,68.5,52,68,52z M62.2,50H67
		v-1.6h-4.8V50z"/>
	<path class="st0" d="M82.9,55.6h-6.8c-0.6,0-1-0.4-1-1v-7.2c0-0.6,0.4-1,1-1h6.8c0.6,0,1,0.4,1,1v7.2
		C83.9,55.2,83.4,55.6,82.9,55.6z M77.1,53.6h4.8v-5.2h-4.8V53.6z"/>
	<path class="st0" d="M70.2,78.5c-0.6,0-1-0.4-1-1V63c0-2.6-2.1-4.6-4.6-4.6s-4.6,2.1-4.6,4.6v14.5c0,0.6-0.4,1-1,1s-1-0.4-1-1V63
		c0-3.7,3-6.6,6.6-6.6s6.6,3,6.6,6.6v14.5C71.2,78.1,70.8,78.5,70.2,78.5z"/>
	<path class="st0" d="M113.9,78.3H90.4c-0.6,0-1-0.4-1-1s0.4-1,1-1h22.4V51.6H90.4c-0.6,0-1-0.4-1-1s0.4-1,1-1h23.4c0.6,0,1,0.4,1,1
		v26.7C114.9,77.8,114.4,78.3,113.9,78.3z"/>
	<path class="st0" d="M106.1,67.1h-7.8c-0.6,0-1-0.4-1-1v-7.2c0-0.6,0.4-1,1-1h7.8c0.6,0,1,0.4,1,1v7.2
		C107.1,66.7,106.6,67.1,106.1,67.1z M99.2,65.1h5.8v-5.2h-5.8V65.1z"/>
	<path class="st0" d="M38.8,78.3H15c-0.6,0-1-0.4-1-1V50.6c0-0.6,0.4-1,1-1h23.8c0.6,0,1,0.4,1,1s-0.4,1-1,1H16v24.7h22.8
		c0.6,0,1,0.4,1,1S39.3,78.3,38.8,78.3z"/>
	<path class="st0" d="M30.8,67.1H23c-0.6,0-1-0.4-1-1v-7.2c0-0.6,0.4-1,1-1h7.8c0.6,0,1,0.4,1,1v7.2C31.8,66.7,31.4,67.1,30.8,67.1z
		 M24,65.1h5.8v-5.2H24V65.1z"/>
	<path class="st0" d="M106.1,70.6h-7.8c-0.6,0-1-0.4-1-1s0.4-1,1-1h7.8c0.6,0,1,0.4,1,1S106.6,70.6,106.1,70.6z"/>
	<path class="st0" d="M30.8,70.6H23c-0.6,0-1-0.4-1-1s0.4-1,1-1h7.8c0.6,0,1,0.4,1,1S31.4,70.6,30.8,70.6z"/>
</g>
</svg>
