<?xml version="1.0" encoding="utf-8"?>
<!-- Generator: Adobe Illustrator 19.1.0, SVG Export Plug-In . SVG Version: 6.00 Build 0)  -->
<svg version="1.1" id="Layer_1" xmlns="http://www.w3.org/2000/svg" xmlns:xlink="http://www.w3.org/1999/xlink" x="0px" y="0px"
	 viewBox="0 0 120 100" style="enable-background:new 0 0 120 100;" xml:space="preserve">
<style type="text/css">
	.st0{fill:#8F97A1;}
	.st1{fill-rule:evenodd;clip-rule:evenodd;fill:#8F97A1;}
</style>
<g>
	<path class="st0" d="M93.4,81.1H26.6c-4.3,0-7.8-3.5-7.8-7.8V26.7c0-4.3,3.5-7.8,7.8-7.8h66.9c4.3,0,7.8,3.5,7.8,7.8v46.5
		C101.3,77.6,97.8,81.1,93.4,81.1z M26.6,20.9c-3.2,0-5.8,2.6-5.8,5.8v46.5c0,3.2,2.6,5.8,5.8,5.8h66.9c3.2,0,5.8-2.6,5.8-5.8V26.7
		c0-3.2-2.6-5.8-5.8-5.8H26.6z"/>
	<path class="st0" d="M86.1,37.6H33.9c-0.6,0-1-0.4-1-1s0.4-1,1-1h52.3c0.6,0,1,0.4,1,1S86.7,37.6,86.1,37.6z"/>
	<path class="st0" d="M62.5,50.6H33.9c-0.6,0-1-0.4-1-1s0.4-1,1-1h28.6c0.6,0,1,0.4,1,1S63,50.6,62.5,50.6z"/>
	<path class="st0" d="M62.5,63.7H33.9c-0.6,0-1-0.4-1-1s0.4-1,1-1h28.6c0.6,0,1,0.4,1,1S63,63.7,62.5,63.7z"/>
	<g>
		<path class="st0" d="M81.4,68.5c-0.2,0-0.4-0.1-0.5-0.2l-0.9-1L78.8,68c-0.2,0.1-0.4,0.1-0.6,0.1c-0.2-0.1-0.4-0.2-0.5-0.4
			l-0.6-1.2l-1.3,0.3c-0.2,0.1-0.4,0-0.6-0.1c-0.2-0.1-0.3-0.3-0.3-0.5l-0.2-1.3l-1.4,0c-0.2,0-0.4-0.1-0.5-0.3
			c-0.1-0.2-0.2-0.4-0.2-0.6l0.1-1.3l-1.3-0.4c-0.2-0.1-0.4-0.2-0.4-0.4c-0.1-0.2-0.1-0.4,0-0.6l0.5-1.3l-1.1-0.8
			c-0.2-0.1-0.3-0.3-0.3-0.5c0-0.2,0-0.4,0.2-0.6l0.8-1.1L70.2,56c-0.1-0.2-0.2-0.4-0.2-0.6c0-0.2,0.1-0.4,0.3-0.5l1.1-0.8L71,52.9
			c-0.1-0.2-0.1-0.4,0-0.6c0.1-0.2,0.2-0.3,0.4-0.4l1.3-0.4l-0.1-1.3c0-0.2,0-0.4,0.2-0.6c0.1-0.2,0.3-0.3,0.5-0.3l1.4,0l0.2-1.3
			c0-0.2,0.2-0.4,0.3-0.5c0.2-0.1,0.4-0.1,0.6-0.1l1.3,0.3l0.6-1.2c0.1-0.2,0.3-0.3,0.5-0.4c0.2-0.1,0.4,0,0.6,0.1l1.2,0.7l0.9-1
			c0.1-0.2,0.3-0.2,0.5-0.2l0,0c0.2,0,0.4,0.1,0.5,0.2l0.9,1l1.2-0.7c0.2-0.1,0.4-0.1,0.6-0.1s0.4,0.2,0.5,0.4l0.6,1.2l1.3-0.3
			c0.2-0.1,0.4,0,0.6,0.1c0.2,0.1,0.3,0.3,0.3,0.5l0.2,1.3l1.4,0c0.2,0,0.4,0.1,0.5,0.3c0.1,0.2,0.2,0.4,0.2,0.6l-0.1,1.3l1.3,0.4
			c0.2,0.1,0.4,0.2,0.4,0.4c0.1,0.2,0.1,0.4,0,0.6l-0.5,1.2l1.1,0.8c0.2,0.1,0.3,0.3,0.3,0.5c0,0.2,0,0.4-0.2,0.6l-0.8,1.1l0.8,1.1
			c0.1,0.2,0.2,0.4,0.2,0.6c0,0.2-0.1,0.4-0.3,0.5L91.3,60l0.5,1.3c0.1,0.2,0.1,0.4,0,0.6c-0.1,0.2-0.2,0.3-0.4,0.4l-1.3,0.4
			l0.1,1.3c0,0.2,0,0.4-0.2,0.6c-0.1,0.2-0.3,0.3-0.5,0.3l-1.4,0l-0.2,1.3c0,0.2-0.2,0.4-0.3,0.5c-0.2,0.1-0.4,0.1-0.6,0.1l-1.3-0.3
			l-0.6,1.2c-0.1,0.2-0.3,0.3-0.5,0.4s-0.4,0-0.6-0.1l-1.2-0.7l-0.9,1C81.8,68.4,81.6,68.5,81.4,68.5z M80.1,65.6
			c0.2,0,0.4,0.1,0.5,0.2l0.8,0.8l0.8-0.8c0.2-0.3,0.6-0.3,0.9-0.1l1,0.6l0.5-1c0.2-0.3,0.5-0.5,0.9-0.4l1.1,0.3l0.2-1.1
			c0.1-0.3,0.4-0.6,0.7-0.6l1.2,0l-0.1-1.1c0-0.4,0.2-0.7,0.5-0.8l1.1-0.4L89.7,60c-0.1-0.3,0-0.7,0.3-0.9l0.9-0.7l-0.7-0.9
			c-0.2-0.3-0.2-0.7,0-0.9l0.7-0.9L90,55c-0.3-0.2-0.4-0.6-0.3-0.9l0.4-1.1l-1.1-0.4c-0.3-0.1-0.5-0.4-0.5-0.8l0.1-1.1l-1.2,0
			c-0.4,0-0.6-0.3-0.7-0.6L86.6,49l-1.1,0.3c-0.3,0.1-0.7-0.1-0.9-0.4l-0.5-1l-1,0.6c-0.3,0.2-0.7,0.1-0.9-0.1l-0.8-0.8l-0.8,0.8
			c-0.2,0.3-0.6,0.3-0.9,0.1l-1-0.6l-0.5,1c-0.2,0.3-0.5,0.5-0.9,0.4L76.2,49L76,50.1c-0.1,0.3-0.4,0.6-0.7,0.6l-1.2,0l0.1,1.1
			c0,0.4-0.2,0.7-0.5,0.8l-1.1,0.4l0.4,1.1c0.1,0.3,0,0.7-0.3,0.9l-0.9,0.7l0.7,0.9c0.2,0.3,0.2,0.7,0,0.9l-0.7,0.9l0.9,0.7
			c0.3,0.2,0.4,0.6,0.3,0.9l-0.4,1.1l1.1,0.4c0.3,0.1,0.5,0.4,0.5,0.8l-0.1,1.1l1.2,0c0.4,0,0.6,0.3,0.7,0.6l0.2,1.1l1.1-0.3
			c0.3-0.1,0.7,0.1,0.9,0.4l0.5,1l1-0.6C79.8,65.6,79.9,65.6,80.1,65.6z"/>
		<path class="st0" d="M81.4,65.5c-4.7,0-8.4-3.8-8.4-8.4s3.8-8.4,8.4-8.4s8.4,3.8,8.4,8.4S86.1,65.5,81.4,65.5z M81.4,50.1
			c-3.8,0-6.9,3.1-6.9,6.9s3.1,6.9,6.9,6.9s6.9-3.1,6.9-6.9S85.2,50.1,81.4,50.1z"/>
	</g>
</g>
</svg>
