<?xml version="1.0" encoding="utf-8"?>
<!-- Generator: Adobe Illustrator 19.1.0, SVG Export Plug-In . SVG Version: 6.00 Build 0)  -->
<svg version="1.1" id="Layer_1" xmlns="http://www.w3.org/2000/svg" xmlns:xlink="http://www.w3.org/1999/xlink" x="0px" y="0px"
	 viewBox="0 0 120 100" style="enable-background:new 0 0 120 100;" xml:space="preserve">
<style type="text/css">
	.st0{fill:#8F97A1;}
	.st1{fill-rule:evenodd;clip-rule:evenodd;fill:#8F97A1;}
</style>
<g>
	<path class="st0" d="M42.2,91c-5,0-9.1-4.1-9.1-9.1s4.1-9.1,9.1-9.1s9.1,4.1,9.1,9.1S47.3,91,42.2,91z M42.2,74.8
		c-3.9,0-7.1,3.2-7.1,7.1c0,3.9,3.2,7.1,7.1,7.1s7.1-3.2,7.1-7.1C49.3,78,46.2,74.8,42.2,74.8z"/>
	<path class="st0" d="M28,47.1c-7.5,0-13.6-6.1-13.6-13.6S20.5,19.9,28,19.9S41.6,26,41.6,33.5S35.5,47.1,28,47.1z M28,21.9
		c-6.4,0-11.6,5.2-11.6,11.6c0,6.4,5.2,11.6,11.6,11.6s11.6-5.2,11.6-11.6C39.6,27.1,34.4,21.9,28,21.9z"/>
	<path class="st0" d="M89.2,77.3c-9,0-16.4-7.4-16.4-16.4s7.4-16.4,16.4-16.4c9,0,16.4,7.4,16.4,16.4S98.3,77.3,89.2,77.3z
		 M89.2,46.5c-7.9,0-14.4,6.5-14.4,14.4s6.5,14.4,14.4,14.4s14.4-6.5,14.4-14.4S97.2,46.5,89.2,46.5z"/>
	<path class="st0" d="M71.9,27.2c-5,0-9.1-4.1-9.1-9.1S66.9,9,71.9,9s9.1,4.1,9.1,9.1S76.9,27.2,71.9,27.2z M71.9,11
		c-3.9,0-7.1,3.2-7.1,7.1c0,3.9,3.2,7.1,7.1,7.1S79,22,79,18.1C79,14.2,75.8,11,71.9,11z"/>
	<path class="st0" d="M39.4,27.8c-0.4,0-0.8-0.3-1-0.7c-0.1-0.5,0.2-1.1,0.7-1.2l23.5-6.2c0.5-0.1,1.1,0.2,1.2,0.7
		c0.1,0.5-0.2,1.1-0.7,1.2l-23.5,6.2C39.6,27.8,39.5,27.8,39.4,27.8z"/>
	<path class="st0" d="M74.1,55.8c-0.1,0-0.3,0-0.4-0.1L39.6,39.4c-0.5-0.2-0.7-0.8-0.5-1.3c0.2-0.5,0.8-0.7,1.3-0.5l34.1,16.2
		c0.5,0.2,0.7,0.8,0.5,1.3C74.9,55.5,74.5,55.8,74.1,55.8z"/>
	<path class="st0" d="M50.6,79.8c-0.4,0-0.8-0.3-0.9-0.7c-0.2-0.5,0.1-1.1,0.6-1.3l24.6-9c0.5-0.2,1.1,0.1,1.3,0.6
		c0.2,0.5-0.1,1.1-0.6,1.3l-24.6,9C50.9,79.8,50.7,79.8,50.6,79.8z"/>
</g>
</svg>
