<?xml version="1.0" encoding="utf-8"?>
<!-- Generator: Adobe Illustrator 19.1.0, SVG Export Plug-In . SVG Version: 6.00 Build 0)  -->
<svg version="1.1" id="Layer_1" xmlns="http://www.w3.org/2000/svg" xmlns:xlink="http://www.w3.org/1999/xlink" x="0px" y="0px"
	 viewBox="0 0 120 100" style="enable-background:new 0 0 120 100;" xml:space="preserve">
<style type="text/css">
	.st0{fill:#8F97A1;}
	.st1{fill-rule:evenodd;clip-rule:evenodd;fill:#8F97A1;}
</style>
<g>
	<path id="TICK_1_" class="st1" d="M106.4,37.1L106.4,37.1l-6.4,8.7l0,0c-0.2,0.2-0.4,0.4-0.7,0.4c-0.3,0-0.5,0-0.7-0.2l0,0
		l-4.9-3.6l0,0c-0.2-0.2-0.4-0.4-0.4-0.7c-0.1-0.5,0.3-1.1,0.8-1.1c0.3,0,0.5,0,0.7,0.2l0,0l4.1,3l5.8-7.9l0,0
		c0.2-0.2,0.4-0.4,0.7-0.4c0.5-0.1,1.1,0.3,1.1,0.8C106.6,36.6,106.5,36.9,106.4,37.1z"/>
	<path class="st0" d="M99.9,53.1c-7.2,0-13.1-5.9-13.1-13.1s5.9-13.1,13.1-13.1c7.2,0,13.1,5.9,13.1,13.1S107.1,53.1,99.9,53.1z
		 M99.9,28.9c-6.1,0-11.1,5-11.1,11.1s5,11.1,11.1,11.1S111,46.1,111,40S106,28.9,99.9,28.9z"/>
	<path class="st0" d="M31,42.6c-5.8,0-10.6-4.7-10.6-10.6c0-5.8,4.7-10.6,10.6-10.6s10.6,4.7,10.6,10.6C41.6,37.9,36.9,42.6,31,42.6
		z M31,23.5c-4.7,0-8.6,3.8-8.6,8.6s3.8,8.6,8.6,8.6s8.6-3.8,8.6-8.6S35.8,23.5,31,23.5z"/>
	<g>
		<path class="st0" d="M39.3,71.2H18.5c-0.6,0-1-0.4-1-1c0-0.8,0-1.5,0-2.1l-0.6,2.4c-0.1,0.4-0.5,0.7-1,0.7H8
			c-0.3,0-0.6-0.1-0.7-0.3S7,70.4,7,70.1c0.3-3,1.3-10.6,4.2-17.2c2.9-6.6,7-10,11.6-10h16.3c3.9,0,7.3,2.3,10,6.9
			c0.3,0.4,0.2,1-0.2,1.3c-5.2,4.4-7.7,14-8.8,19.4C40.2,70.9,39.7,71.2,39.3,71.2z M19.5,69.2h18.9c1.1-5.5,3.6-14.4,8.6-19.1
			c-2.3-3.5-4.9-5.2-7.9-5.2H22.9c-3.9,0-7.2,3-9.8,8.9c-2.5,5.7-3.6,12.1-4,15.5h6.1l2.4-8.9c0.1-0.5,0.6-0.8,1.1-0.7
			c0.5,0.1,0.9,0.5,0.9,1v1.5C19.5,63.8,19.5,64.9,19.5,69.2z"/>
	</g>
	<path class="st0" d="M66.2,49.9c-5.8,0-10.6-4.7-10.6-10.6c0-5.8,4.7-10.6,10.6-10.6s10.6,4.7,10.6,10.6
		C76.8,45.2,72,49.9,66.2,49.9z M66.2,30.8c-4.7,0-8.6,3.8-8.6,8.6s3.8,8.6,8.6,8.6s8.6-3.8,8.6-8.6S70.9,30.8,66.2,30.8z"/>
	<path class="st0" d="M89.3,78.5h-7.9c-0.5,0-0.8-0.3-1-0.7l-0.6-2.4c0,0.6,0,1.3,0,2.1c0,0.6-0.4,1-1,1h-25c-0.6,0-1-0.4-1-1
		c0-0.8,0-1.5,0-2.1l-0.6,2.4c-0.1,0.4-0.5,0.7-1,0.7h-7.9c-0.3,0-0.6-0.1-0.7-0.3s-0.3-0.5-0.3-0.8c0.3-3,1.3-10.6,4.2-17.2
		c2.9-6.6,7-10,11.6-10h16.3c4.7,0,8.7,3.5,11.6,10c3,6.7,4,14.3,4.2,17.2c0,0.3-0.1,0.6-0.3,0.8S89.6,78.5,89.3,78.5z M82.1,76.5
		h6.1c-0.4-3.4-1.4-9.8-4-15.5c-2.6-5.9-5.9-8.9-9.8-8.9H58c-3.9,0-7.2,3-9.8,8.9c-2.5,5.7-3.6,12.1-4,15.5h6.1l2.4-8.9
		c0.1-0.5,0.6-0.8,1.1-0.7c0.5,0.1,0.9,0.5,0.9,1v1.5c0,1.8,0,2.8,0,7.2h23c0-4.4,0-5.4,0-7.2v-1.5c0-0.5,0.4-0.9,0.9-1
		c0.5-0.1,1,0.2,1.1,0.7L82.1,76.5z"/>
</g>
</svg>
